M48
; DRILL file {KiCad 5.1.2-f72e74a~84~ubuntu18.10.1} date 2019年07月04日 17時39分53秒
; FORMAT={-:-/ absolute / inch / decimal}
; #@! TF.CreationDate,2019-07-04T17:39:53+09:00
; #@! TF.GenerationSoftware,Kicad,Pcbnew,5.1.2-f72e74a~84~ubuntu18.10.1
FMAT,2
INCH
T1C0.0236
T2C0.0276
T3C0.0315
T4C0.0354
T5C0.0394
T6C0.0591
T7C0.0787
T8C0.1063
%
G90
G05
T1
X8.9173Y-4.0945
X9.1142Y-4.498
X9.2126Y-4.6949
T2
X8.0512Y-4.3504
X8.0512Y-4.6504
T3
X8.3071Y-4.8819
X8.3071Y-4.9606
X8.3071Y-5.0394
T4
X8.2563Y-4.498
X8.3563Y-4.498
T5
X8.3661Y-5.8071
X8.4646Y-5.8071
X8.563Y-5.8071
X8.2035Y-3.7886
X8.2035Y-3.8886
X8.3035Y-3.7886
X8.3035Y-3.8886
X8.4035Y-3.7886
X8.4035Y-3.8886
X8.5035Y-3.7886
X8.5035Y-3.8886
X8.6035Y-3.7886
X8.6035Y-3.8886
X8.7035Y-3.7886
X8.7035Y-3.8886
X8.8035Y-3.7886
X8.8035Y-3.8886
X8.9035Y-3.7886
X8.9035Y-3.8886
X9.0035Y-3.7886
X9.0035Y-3.8886
X9.1035Y-3.7886
X9.1035Y-3.8886
X9.2035Y-3.7886
X9.2035Y-3.8886
X9.3035Y-3.7886
X9.3035Y-3.8886
X9.4035Y-3.7886
X9.4035Y-3.8886
X9.5035Y-3.7886
X9.5035Y-3.8886
X9.6035Y-3.7886
X9.6035Y-3.8886
X9.7035Y-3.7886
X9.7035Y-3.8886
X9.8035Y-3.7886
X9.8035Y-3.8886
X9.9035Y-3.7886
X9.9035Y-3.8886
X10.0035Y-3.7886
X10.0035Y-3.8886
X10.1035Y-3.7886
X10.1035Y-3.8886
X9.7441Y-5.8071
X9.8425Y-5.8071
X9.9409Y-5.8071
X8.9173Y-5.4921
X9.0173Y-5.4921
X9.1173Y-5.4921
X9.2173Y-5.4921
X9.3173Y-5.4921
X9.4173Y-5.4921
X8.204Y-4.0945
X8.304Y-4.0945
X8.404Y-4.0945
T6
X8.3071Y-4.7992
X8.3071Y-5.122
T8
X8.0118Y-5.7677
X8.0118Y-3.8386
X10.2953Y-5.7677
X10.2953Y-3.8386
T7
G00X8.2441Y-5.5217
M15
G01X8.2441Y-5.502
M16
G05
G00X8.685Y-5.5217
M15
G01X8.685Y-5.502
M16
G05
G00X9.622Y-5.5217
M15
G01X9.622Y-5.502
M16
G05
G00X10.063Y-5.5217
M15
G01X10.063Y-5.502
M16
G05
T0
M30
