G04 #@! TF.GenerationSoftware,KiCad,Pcbnew,5.1.2-f72e74a~84~ubuntu18.10.1*
G04 #@! TF.CreationDate,2019-07-04T17:38:07+09:00*
G04 #@! TF.ProjectId,RPI_HAT,5250495f-4841-4542-9e6b-696361645f70,rev?*
G04 #@! TF.SameCoordinates,Original*
G04 #@! TF.FileFunction,Soldermask,Bot*
G04 #@! TF.FilePolarity,Negative*
%FSLAX46Y46*%
G04 Gerber Fmt 4.6, Leading zero omitted, Abs format (unit mm)*
G04 Created by KiCad (PCBNEW 5.1.2-f72e74a~84~ubuntu18.10.1) date 2019-07-04 17:38:07*
%MOMM*%
%LPD*%
G04 APERTURE LIST*
%ADD10O,3.500000X2.200000*%
%ADD11O,2.500000X1.500000*%
%ADD12R,2.500000X1.500000*%
%ADD13O,1.700000X1.700000*%
%ADD14R,1.700000X1.700000*%
%ADD15O,1.400000X1.400000*%
%ADD16C,1.400000*%
%ADD17C,1.800000*%
%ADD18R,1.800000X1.800000*%
%ADD19R,2.000000X2.000000*%
%ADD20C,2.000000*%
%ADD21R,2.500000X3.000000*%
%ADD22C,2.700000*%
G04 APERTURE END LIST*
D10*
X211000000Y-130100000D03*
X211000000Y-121900000D03*
D11*
X211000000Y-128000000D03*
X211000000Y-126000000D03*
D12*
X211000000Y-124000000D03*
D13*
X239200000Y-139500000D03*
X236660000Y-139500000D03*
X234120000Y-139500000D03*
X231580000Y-139500000D03*
X229040000Y-139500000D03*
D14*
X226500000Y-139500000D03*
D13*
X213462000Y-104000000D03*
X210922000Y-104000000D03*
D14*
X208382000Y-104000000D03*
D15*
X204500000Y-118120000D03*
D16*
X204500000Y-110500000D03*
D17*
X209710000Y-114250000D03*
D18*
X212250000Y-114250000D03*
D19*
X247500000Y-147500000D03*
D20*
X250000000Y-147500000D03*
X252500000Y-147500000D03*
D21*
X244400000Y-140000000D03*
X255600000Y-140000000D03*
D19*
X212500000Y-147500000D03*
D20*
X215000000Y-147500000D03*
X217500000Y-147500000D03*
D21*
X209400000Y-140000000D03*
X220600000Y-140000000D03*
D14*
X208370000Y-98770000D03*
D13*
X208370000Y-96230000D03*
X210910000Y-98770000D03*
X210910000Y-96230000D03*
X213450000Y-98770000D03*
X213450000Y-96230000D03*
X215990000Y-98770000D03*
X215990000Y-96230000D03*
X218530000Y-98770000D03*
X218530000Y-96230000D03*
X221070000Y-98770000D03*
X221070000Y-96230000D03*
X223610000Y-98770000D03*
X223610000Y-96230000D03*
X226150000Y-98770000D03*
X226150000Y-96230000D03*
X228690000Y-98770000D03*
X228690000Y-96230000D03*
X231230000Y-98770000D03*
X231230000Y-96230000D03*
X233770000Y-98770000D03*
X233770000Y-96230000D03*
X236310000Y-98770000D03*
X236310000Y-96230000D03*
X238850000Y-98770000D03*
X238850000Y-96230000D03*
X241390000Y-98770000D03*
X241390000Y-96230000D03*
X243930000Y-98770000D03*
X243930000Y-96230000D03*
X246470000Y-98770000D03*
X246470000Y-96230000D03*
X249010000Y-98770000D03*
X249010000Y-96230000D03*
X251550000Y-98770000D03*
X251550000Y-96230000D03*
X254090000Y-98770000D03*
X254090000Y-96230000D03*
X256630000Y-98770000D03*
X256630000Y-96230000D03*
D22*
X261500000Y-146500000D03*
X203500000Y-146500000D03*
X261500000Y-97500000D03*
X203500000Y-97500000D03*
M02*
