G04 #@! TF.GenerationSoftware,KiCad,Pcbnew,5.1.2-f72e74a~84~ubuntu18.10.1*
G04 #@! TF.CreationDate,2019-07-04T17:38:07+09:00*
G04 #@! TF.ProjectId,RPI_HAT,5250495f-4841-4542-9e6b-696361645f70,rev?*
G04 #@! TF.SameCoordinates,Original*
G04 #@! TF.FileFunction,Legend,Bot*
G04 #@! TF.FilePolarity,Positive*
%FSLAX46Y46*%
G04 Gerber Fmt 4.6, Leading zero omitted, Abs format (unit mm)*
G04 Created by KiCad (PCBNEW 5.1.2-f72e74a~84~ubuntu18.10.1) date 2019-07-04 17:38:07*
%MOMM*%
%LPD*%
G04 APERTURE LIST*
%ADD10C,0.150000*%
%ADD11C,0.120000*%
G04 APERTURE END LIST*
D10*
X260666666Y-100952380D02*
X260666666Y-101428571D01*
X260952380Y-100857142D02*
X259952380Y-101190476D01*
X260952380Y-101523809D01*
X260285714Y-102285714D02*
X260952380Y-102285714D01*
X260285714Y-101857142D02*
X260809523Y-101857142D01*
X260904761Y-101904761D01*
X260952380Y-101999999D01*
X260952380Y-102142857D01*
X260904761Y-102238095D01*
X260857142Y-102285714D01*
X260285714Y-102619047D02*
X260285714Y-102999999D01*
X259952380Y-102761904D02*
X260809523Y-102761904D01*
X260904761Y-102809523D01*
X260952380Y-102904761D01*
X260952380Y-102999999D01*
X260952380Y-103333333D02*
X259952380Y-103333333D01*
X260952380Y-103761904D02*
X260428571Y-103761904D01*
X260333333Y-103714285D01*
X260285714Y-103619047D01*
X260285714Y-103476190D01*
X260333333Y-103380952D01*
X260380952Y-103333333D01*
X260952380Y-104380952D02*
X260904761Y-104285714D01*
X260857142Y-104238095D01*
X260761904Y-104190476D01*
X260476190Y-104190476D01*
X260380952Y-104238095D01*
X260333333Y-104285714D01*
X260285714Y-104380952D01*
X260285714Y-104523809D01*
X260333333Y-104619047D01*
X260380952Y-104666666D01*
X260476190Y-104714285D01*
X260761904Y-104714285D01*
X260857142Y-104666666D01*
X260904761Y-104619047D01*
X260952380Y-104523809D01*
X260952380Y-104380952D01*
X260952380Y-105142857D02*
X260285714Y-105142857D01*
X260476190Y-105142857D02*
X260380952Y-105190476D01*
X260333333Y-105238095D01*
X260285714Y-105333333D01*
X260285714Y-105428571D01*
X260857142Y-105761904D02*
X260904761Y-105809523D01*
X260952380Y-105761904D01*
X260904761Y-105714285D01*
X260857142Y-105761904D01*
X260952380Y-105761904D01*
X260333333Y-105761904D02*
X260380952Y-105809523D01*
X260428571Y-105761904D01*
X260380952Y-105714285D01*
X260333333Y-105761904D01*
X260428571Y-105761904D01*
X260476190Y-107619047D02*
X260428571Y-107571428D01*
X260380952Y-107476190D01*
X260380952Y-107380952D01*
X260428571Y-107285714D01*
X260476190Y-107238095D01*
X260571428Y-107190476D01*
X260666666Y-107190476D01*
X260761904Y-107238095D01*
X260809523Y-107285714D01*
X260857142Y-107380952D01*
X260857142Y-107476190D01*
X260809523Y-107571428D01*
X260761904Y-107619047D01*
X260380952Y-107619047D02*
X260761904Y-107619047D01*
X260809523Y-107666666D01*
X260809523Y-107714285D01*
X260761904Y-107809523D01*
X260666666Y-107857142D01*
X260428571Y-107857142D01*
X260285714Y-107761904D01*
X260190476Y-107619047D01*
X260142857Y-107428571D01*
X260190476Y-107238095D01*
X260285714Y-107095238D01*
X260428571Y-106999999D01*
X260619047Y-106952380D01*
X260809523Y-106999999D01*
X260952380Y-107095238D01*
X261047619Y-107238095D01*
X261095238Y-107428571D01*
X261047619Y-107619047D01*
X260952380Y-107761904D01*
X260285714Y-108285714D02*
X261285714Y-108285714D01*
X260333333Y-108285714D02*
X260285714Y-108380952D01*
X260285714Y-108571428D01*
X260333333Y-108666666D01*
X260380952Y-108714285D01*
X260476190Y-108761904D01*
X260761904Y-108761904D01*
X260857142Y-108714285D01*
X260904761Y-108666666D01*
X260952380Y-108571428D01*
X260952380Y-108380952D01*
X260904761Y-108285714D01*
X260952380Y-109619047D02*
X260428571Y-109619047D01*
X260333333Y-109571428D01*
X260285714Y-109476190D01*
X260285714Y-109285714D01*
X260333333Y-109190476D01*
X260904761Y-109619047D02*
X260952380Y-109523809D01*
X260952380Y-109285714D01*
X260904761Y-109190476D01*
X260809523Y-109142857D01*
X260714285Y-109142857D01*
X260619047Y-109190476D01*
X260571428Y-109285714D01*
X260571428Y-109523809D01*
X260523809Y-109619047D01*
X260285714Y-110095238D02*
X260952380Y-110095238D01*
X260380952Y-110095238D02*
X260333333Y-110142857D01*
X260285714Y-110238095D01*
X260285714Y-110380952D01*
X260333333Y-110476190D01*
X260428571Y-110523809D01*
X260952380Y-110523809D01*
X260952380Y-111428571D02*
X259952380Y-111428571D01*
X260904761Y-111428571D02*
X260952380Y-111333333D01*
X260952380Y-111142857D01*
X260904761Y-111047619D01*
X260857142Y-110999999D01*
X260761904Y-110952380D01*
X260476190Y-110952380D01*
X260380952Y-110999999D01*
X260333333Y-111047619D01*
X260285714Y-111142857D01*
X260285714Y-111333333D01*
X260333333Y-111428571D01*
X260952380Y-112333333D02*
X260428571Y-112333333D01*
X260333333Y-112285714D01*
X260285714Y-112190476D01*
X260285714Y-111999999D01*
X260333333Y-111904761D01*
X260904761Y-112333333D02*
X260952380Y-112238095D01*
X260952380Y-111999999D01*
X260904761Y-111904761D01*
X260809523Y-111857142D01*
X260714285Y-111857142D01*
X260619047Y-111904761D01*
X260571428Y-111999999D01*
X260571428Y-112238095D01*
X260523809Y-112333333D01*
X260952380Y-112714285D02*
X260285714Y-113238095D01*
X260285714Y-112714285D02*
X260952380Y-113238095D01*
X259952380Y-113523809D02*
X259952380Y-114142857D01*
X260333333Y-113809523D01*
X260333333Y-113952380D01*
X260380952Y-114047619D01*
X260428571Y-114095238D01*
X260523809Y-114142857D01*
X260761904Y-114142857D01*
X260857142Y-114095238D01*
X260904761Y-114047619D01*
X260952380Y-113952380D01*
X260952380Y-113666666D01*
X260904761Y-113571428D01*
X260857142Y-113523809D01*
X260380952Y-114714285D02*
X260333333Y-114619047D01*
X260285714Y-114571428D01*
X260190476Y-114523809D01*
X260142857Y-114523809D01*
X260047619Y-114571428D01*
X260000000Y-114619047D01*
X259952380Y-114714285D01*
X259952380Y-114904761D01*
X260000000Y-114999999D01*
X260047619Y-115047619D01*
X260142857Y-115095238D01*
X260190476Y-115095238D01*
X260285714Y-115047619D01*
X260333333Y-114999999D01*
X260380952Y-114904761D01*
X260380952Y-114714285D01*
X260428571Y-114619047D01*
X260476190Y-114571428D01*
X260571428Y-114523809D01*
X260761904Y-114523809D01*
X260857142Y-114571428D01*
X260904761Y-114619047D01*
X260952380Y-114714285D01*
X260952380Y-114904761D01*
X260904761Y-114999999D01*
X260857142Y-115047619D01*
X260761904Y-115095238D01*
X260571428Y-115095238D01*
X260476190Y-115047619D01*
X260428571Y-114999999D01*
X260380952Y-114904761D01*
X260952380Y-116047619D02*
X260952380Y-115476190D01*
X260952380Y-115761904D02*
X259952380Y-115761904D01*
X260095238Y-115666666D01*
X260190476Y-115571428D01*
X260238095Y-115476190D01*
X262952380Y-100857142D02*
X261952380Y-100857142D01*
X262952380Y-101285714D02*
X262428571Y-101285714D01*
X262333333Y-101238095D01*
X262285714Y-101142857D01*
X262285714Y-101000000D01*
X262333333Y-100904761D01*
X262380952Y-100857142D01*
X262285714Y-101619047D02*
X262285714Y-102000000D01*
X261952380Y-101761904D02*
X262809523Y-101761904D01*
X262904761Y-101809523D01*
X262952380Y-101904761D01*
X262952380Y-102000000D01*
X262285714Y-102190476D02*
X262285714Y-102571428D01*
X261952380Y-102333333D02*
X262809523Y-102333333D01*
X262904761Y-102380952D01*
X262952380Y-102476190D01*
X262952380Y-102571428D01*
X262285714Y-102904761D02*
X263285714Y-102904761D01*
X262333333Y-102904761D02*
X262285714Y-103000000D01*
X262285714Y-103190476D01*
X262333333Y-103285714D01*
X262380952Y-103333333D01*
X262476190Y-103380952D01*
X262761904Y-103380952D01*
X262857142Y-103333333D01*
X262904761Y-103285714D01*
X262952380Y-103190476D01*
X262952380Y-103000000D01*
X262904761Y-102904761D01*
X262904761Y-103761904D02*
X262952380Y-103857142D01*
X262952380Y-104047619D01*
X262904761Y-104142857D01*
X262809523Y-104190476D01*
X262761904Y-104190476D01*
X262666666Y-104142857D01*
X262619047Y-104047619D01*
X262619047Y-103904761D01*
X262571428Y-103809523D01*
X262476190Y-103761904D01*
X262428571Y-103761904D01*
X262333333Y-103809523D01*
X262285714Y-103904761D01*
X262285714Y-104047619D01*
X262333333Y-104142857D01*
X262857142Y-104619047D02*
X262904761Y-104666666D01*
X262952380Y-104619047D01*
X262904761Y-104571428D01*
X262857142Y-104619047D01*
X262952380Y-104619047D01*
X262333333Y-104619047D02*
X262380952Y-104666666D01*
X262428571Y-104619047D01*
X262380952Y-104571428D01*
X262333333Y-104619047D01*
X262428571Y-104619047D01*
X261904761Y-105809523D02*
X263190476Y-104952380D01*
X261904761Y-106857142D02*
X263190476Y-106000000D01*
X262285714Y-107619047D02*
X263095238Y-107619047D01*
X263190476Y-107571428D01*
X263238095Y-107523809D01*
X263285714Y-107428571D01*
X263285714Y-107285714D01*
X263238095Y-107190476D01*
X262904761Y-107619047D02*
X262952380Y-107523809D01*
X262952380Y-107333333D01*
X262904761Y-107238095D01*
X262857142Y-107190476D01*
X262761904Y-107142857D01*
X262476190Y-107142857D01*
X262380952Y-107190476D01*
X262333333Y-107238095D01*
X262285714Y-107333333D01*
X262285714Y-107523809D01*
X262333333Y-107619047D01*
X262952380Y-108095238D02*
X262285714Y-108095238D01*
X261952380Y-108095238D02*
X262000000Y-108047619D01*
X262047619Y-108095238D01*
X262000000Y-108142857D01*
X261952380Y-108095238D01*
X262047619Y-108095238D01*
X262285714Y-108428571D02*
X262285714Y-108809523D01*
X261952380Y-108571428D02*
X262809523Y-108571428D01*
X262904761Y-108619047D01*
X262952380Y-108714285D01*
X262952380Y-108809523D01*
X262952380Y-109142857D02*
X261952380Y-109142857D01*
X262952380Y-109571428D02*
X262428571Y-109571428D01*
X262333333Y-109523809D01*
X262285714Y-109428571D01*
X262285714Y-109285714D01*
X262333333Y-109190476D01*
X262380952Y-109142857D01*
X262285714Y-110476190D02*
X262952380Y-110476190D01*
X262285714Y-110047619D02*
X262809523Y-110047619D01*
X262904761Y-110095238D01*
X262952380Y-110190476D01*
X262952380Y-110333333D01*
X262904761Y-110428571D01*
X262857142Y-110476190D01*
X262952380Y-110952380D02*
X261952380Y-110952380D01*
X262333333Y-110952380D02*
X262285714Y-111047619D01*
X262285714Y-111238095D01*
X262333333Y-111333333D01*
X262380952Y-111380952D01*
X262476190Y-111428571D01*
X262761904Y-111428571D01*
X262857142Y-111380952D01*
X262904761Y-111333333D01*
X262952380Y-111238095D01*
X262952380Y-111047619D01*
X262904761Y-110952380D01*
X262857142Y-111857142D02*
X262904761Y-111904761D01*
X262952380Y-111857142D01*
X262904761Y-111809523D01*
X262857142Y-111857142D01*
X262952380Y-111857142D01*
X262904761Y-112761904D02*
X262952380Y-112666666D01*
X262952380Y-112476190D01*
X262904761Y-112380952D01*
X262857142Y-112333333D01*
X262761904Y-112285714D01*
X262476190Y-112285714D01*
X262380952Y-112333333D01*
X262333333Y-112380952D01*
X262285714Y-112476190D01*
X262285714Y-112666666D01*
X262333333Y-112761904D01*
X262952380Y-113333333D02*
X262904761Y-113238095D01*
X262857142Y-113190476D01*
X262761904Y-113142857D01*
X262476190Y-113142857D01*
X262380952Y-113190476D01*
X262333333Y-113238095D01*
X262285714Y-113333333D01*
X262285714Y-113476190D01*
X262333333Y-113571428D01*
X262380952Y-113619047D01*
X262476190Y-113666666D01*
X262761904Y-113666666D01*
X262857142Y-113619047D01*
X262904761Y-113571428D01*
X262952380Y-113476190D01*
X262952380Y-113333333D01*
X262952380Y-114095238D02*
X262285714Y-114095238D01*
X262380952Y-114095238D02*
X262333333Y-114142857D01*
X262285714Y-114238095D01*
X262285714Y-114380952D01*
X262333333Y-114476190D01*
X262428571Y-114523809D01*
X262952380Y-114523809D01*
X262428571Y-114523809D02*
X262333333Y-114571428D01*
X262285714Y-114666666D01*
X262285714Y-114809523D01*
X262333333Y-114904761D01*
X262428571Y-114952380D01*
X262952380Y-114952380D01*
X261904761Y-116142857D02*
X263190476Y-115285714D01*
X262285714Y-116476190D02*
X263285714Y-116476190D01*
X262333333Y-116476190D02*
X262285714Y-116571428D01*
X262285714Y-116761904D01*
X262333333Y-116857142D01*
X262380952Y-116904761D01*
X262476190Y-116952380D01*
X262761904Y-116952380D01*
X262857142Y-116904761D01*
X262904761Y-116857142D01*
X262952380Y-116761904D01*
X262952380Y-116571428D01*
X262904761Y-116476190D01*
X262952380Y-117809523D02*
X262428571Y-117809523D01*
X262333333Y-117761904D01*
X262285714Y-117666666D01*
X262285714Y-117476190D01*
X262333333Y-117380952D01*
X262904761Y-117809523D02*
X262952380Y-117714285D01*
X262952380Y-117476190D01*
X262904761Y-117380952D01*
X262809523Y-117333333D01*
X262714285Y-117333333D01*
X262619047Y-117380952D01*
X262571428Y-117476190D01*
X262571428Y-117714285D01*
X262523809Y-117809523D01*
X262285714Y-118285714D02*
X262952380Y-118285714D01*
X262380952Y-118285714D02*
X262333333Y-118333333D01*
X262285714Y-118428571D01*
X262285714Y-118571428D01*
X262333333Y-118666666D01*
X262428571Y-118714285D01*
X262952380Y-118714285D01*
X262952380Y-119619047D02*
X261952380Y-119619047D01*
X262904761Y-119619047D02*
X262952380Y-119523809D01*
X262952380Y-119333333D01*
X262904761Y-119238095D01*
X262857142Y-119190476D01*
X262761904Y-119142857D01*
X262476190Y-119142857D01*
X262380952Y-119190476D01*
X262333333Y-119238095D01*
X262285714Y-119333333D01*
X262285714Y-119523809D01*
X262333333Y-119619047D01*
X262952380Y-120523809D02*
X262428571Y-120523809D01*
X262333333Y-120476190D01*
X262285714Y-120380952D01*
X262285714Y-120190476D01*
X262333333Y-120095238D01*
X262904761Y-120523809D02*
X262952380Y-120428571D01*
X262952380Y-120190476D01*
X262904761Y-120095238D01*
X262809523Y-120047619D01*
X262714285Y-120047619D01*
X262619047Y-120095238D01*
X262571428Y-120190476D01*
X262571428Y-120428571D01*
X262523809Y-120523809D01*
X262952380Y-120904761D02*
X262285714Y-121428571D01*
X262285714Y-120904761D02*
X262952380Y-121428571D01*
X261952380Y-121714285D02*
X261952380Y-122333333D01*
X262333333Y-122000000D01*
X262333333Y-122142857D01*
X262380952Y-122238095D01*
X262428571Y-122285714D01*
X262523809Y-122333333D01*
X262761904Y-122333333D01*
X262857142Y-122285714D01*
X262904761Y-122238095D01*
X262952380Y-122142857D01*
X262952380Y-121857142D01*
X262904761Y-121761904D01*
X262857142Y-121714285D01*
X262380952Y-122904761D02*
X262333333Y-122809523D01*
X262285714Y-122761904D01*
X262190476Y-122714285D01*
X262142857Y-122714285D01*
X262047619Y-122761904D01*
X262000000Y-122809523D01*
X261952380Y-122904761D01*
X261952380Y-123095238D01*
X262000000Y-123190476D01*
X262047619Y-123238095D01*
X262142857Y-123285714D01*
X262190476Y-123285714D01*
X262285714Y-123238095D01*
X262333333Y-123190476D01*
X262380952Y-123095238D01*
X262380952Y-122904761D01*
X262428571Y-122809523D01*
X262476190Y-122761904D01*
X262571428Y-122714285D01*
X262761904Y-122714285D01*
X262857142Y-122761904D01*
X262904761Y-122809523D01*
X262952380Y-122904761D01*
X262952380Y-123095238D01*
X262904761Y-123190476D01*
X262857142Y-123238095D01*
X262761904Y-123285714D01*
X262571428Y-123285714D01*
X262476190Y-123238095D01*
X262428571Y-123190476D01*
X262380952Y-123095238D01*
X262952380Y-124238095D02*
X262952380Y-123666666D01*
X262952380Y-123952380D02*
X261952380Y-123952380D01*
X262095238Y-123857142D01*
X262190476Y-123761904D01*
X262238095Y-123666666D01*
X261904761Y-125380952D02*
X263190476Y-124523809D01*
X262952380Y-125714285D02*
X261952380Y-125714285D01*
X261952380Y-126095238D01*
X262000000Y-126190476D01*
X262047619Y-126238095D01*
X262142857Y-126285714D01*
X262285714Y-126285714D01*
X262380952Y-126238095D01*
X262428571Y-126190476D01*
X262476190Y-126095238D01*
X262476190Y-125714285D01*
X262666666Y-126666666D02*
X262666666Y-127142857D01*
X262952380Y-126571428D02*
X261952380Y-126904761D01*
X262952380Y-127238095D01*
X262857142Y-128142857D02*
X262904761Y-128095238D01*
X262952380Y-127952380D01*
X262952380Y-127857142D01*
X262904761Y-127714285D01*
X262809523Y-127619047D01*
X262714285Y-127571428D01*
X262523809Y-127523809D01*
X262380952Y-127523809D01*
X262190476Y-127571428D01*
X262095238Y-127619047D01*
X262000000Y-127714285D01*
X261952380Y-127857142D01*
X261952380Y-127952380D01*
X262000000Y-128095238D01*
X262047619Y-128142857D01*
X262952380Y-128571428D02*
X261952380Y-128571428D01*
X262952380Y-129142857D02*
X262380952Y-128714285D01*
X261952380Y-129142857D02*
X262523809Y-128571428D01*
X262952380Y-129571428D02*
X261952380Y-129571428D01*
X261952380Y-129809523D01*
X262000000Y-129952380D01*
X262095238Y-130047619D01*
X262190476Y-130095238D01*
X262380952Y-130142857D01*
X262523809Y-130142857D01*
X262714285Y-130095238D01*
X262809523Y-130047619D01*
X262904761Y-129952380D01*
X262952380Y-129809523D01*
X262952380Y-129571428D01*
X262952380Y-131142857D02*
X262476190Y-130809523D01*
X262952380Y-130571428D02*
X261952380Y-130571428D01*
X261952380Y-130952380D01*
X262000000Y-131047619D01*
X262047619Y-131095238D01*
X262142857Y-131142857D01*
X262285714Y-131142857D01*
X262380952Y-131095238D01*
X262428571Y-131047619D01*
X262476190Y-130952380D01*
X262476190Y-130571428D01*
X261952380Y-131761904D02*
X261952380Y-131952380D01*
X262000000Y-132047619D01*
X262095238Y-132142857D01*
X262285714Y-132190476D01*
X262619047Y-132190476D01*
X262809523Y-132142857D01*
X262904761Y-132047619D01*
X262952380Y-131952380D01*
X262952380Y-131761904D01*
X262904761Y-131666666D01*
X262809523Y-131571428D01*
X262619047Y-131523809D01*
X262285714Y-131523809D01*
X262095238Y-131571428D01*
X262000000Y-131666666D01*
X261952380Y-131761904D01*
X262952380Y-132619047D02*
X261952380Y-132619047D01*
X261952380Y-133000000D01*
X262000000Y-133095238D01*
X262047619Y-133142857D01*
X262142857Y-133190476D01*
X262285714Y-133190476D01*
X262380952Y-133142857D01*
X262428571Y-133095238D01*
X262476190Y-133000000D01*
X262476190Y-132619047D01*
D11*
X207040000Y-94900000D02*
X207040000Y-97500000D01*
X207040000Y-94900000D02*
X257960000Y-94900000D01*
X257960000Y-94900000D02*
X257960000Y-100100000D01*
X209640000Y-100100000D02*
X257960000Y-100100000D01*
X209640000Y-97500000D02*
X209640000Y-100100000D01*
X207040000Y-97500000D02*
X209640000Y-97500000D01*
X207040000Y-100100000D02*
X208370000Y-100100000D01*
X207040000Y-98770000D02*
X207040000Y-100100000D01*
D10*
X208938095Y-101752380D02*
X208938095Y-100752380D01*
X208557142Y-100752380D01*
X208461904Y-100800000D01*
X208414285Y-100847619D01*
X208366666Y-100942857D01*
X208366666Y-101085714D01*
X208414285Y-101180952D01*
X208461904Y-101228571D01*
X208557142Y-101276190D01*
X208938095Y-101276190D01*
X207414285Y-101752380D02*
X207985714Y-101752380D01*
X207700000Y-101752380D02*
X207700000Y-100752380D01*
X207795238Y-100895238D01*
X207890476Y-100990476D01*
X207985714Y-101038095D01*
M02*
