G04 #@! TF.FileFunction,Copper,L1,Top,Signal*
%FSLAX46Y46*%
G04 Gerber Fmt 4.6, Leading zero omitted, Abs format (unit mm)*
G04 Created by KiCad (PCBNEW 4.0.5) date *
%MOMM*%
%LPD*%
G01*
G04 APERTURE LIST*
%ADD10C,0.150000*%
%ADD11R,1.727200X1.727200*%
%ADD12O,1.727200X1.727200*%
%ADD13R,1.727200X2.032000*%
%ADD14O,1.727200X2.032000*%
%ADD15O,1.600000X1.600000*%
%ADD16R,1.900000X2.000000*%
%ADD17C,1.900000*%
%ADD18C,1.400000*%
%ADD19C,1.998980*%
%ADD20R,1.524000X1.524000*%
%ADD21C,1.524000*%
%ADD22R,2.000000X0.600000*%
%ADD23R,0.900000X2.000000*%
%ADD24O,0.900000X2.000000*%
%ADD25C,0.250000*%
%ADD26C,0.500000*%
%ADD27C,0.254000*%
G04 APERTURE END LIST*
D10*
D11*
X83370000Y-68270000D03*
D12*
X83370000Y-65730000D03*
X85910000Y-68270000D03*
X85910000Y-65730000D03*
X88450000Y-68270000D03*
X88450000Y-65730000D03*
X90990000Y-68270000D03*
X90990000Y-65730000D03*
X93530000Y-68270000D03*
X93530000Y-65730000D03*
X96070000Y-68270000D03*
X96070000Y-65730000D03*
X98610000Y-68270000D03*
X98610000Y-65730000D03*
X101150000Y-68270000D03*
X101150000Y-65730000D03*
X103690000Y-68270000D03*
X103690000Y-65730000D03*
X106230000Y-68270000D03*
X106230000Y-65730000D03*
X108770000Y-68270000D03*
X108770000Y-65730000D03*
X111310000Y-68270000D03*
X111310000Y-65730000D03*
X113850000Y-68270000D03*
X113850000Y-65730000D03*
X116390000Y-68270000D03*
X116390000Y-65730000D03*
X118930000Y-68270000D03*
X118930000Y-65730000D03*
X121470000Y-68270000D03*
X121470000Y-65730000D03*
X124010000Y-68270000D03*
X124010000Y-65730000D03*
X126550000Y-68270000D03*
X126550000Y-65730000D03*
X129090000Y-68270000D03*
X129090000Y-65730000D03*
X131630000Y-68270000D03*
X131630000Y-65730000D03*
D13*
X83420000Y-73500000D03*
D14*
X85960000Y-73500000D03*
X88500000Y-73500000D03*
D15*
X127380000Y-85130000D03*
X127380000Y-87670000D03*
X127380000Y-90210000D03*
X127380000Y-92750000D03*
X135000000Y-92750000D03*
X135000000Y-90210000D03*
X135000000Y-87670000D03*
X135000000Y-85130000D03*
D16*
X87547600Y-86129100D03*
D17*
X85007600Y-86129100D03*
D18*
X105950000Y-106900000D03*
X105950000Y-101900000D03*
X112500000Y-106900000D03*
X112500000Y-101900000D03*
X119000000Y-106900000D03*
X119000000Y-101900000D03*
D19*
X95250000Y-109660000D03*
X95250000Y-99500000D03*
X99250000Y-109660000D03*
X99250000Y-99500000D03*
X80461000Y-80960200D03*
X80461000Y-91120200D03*
D11*
X84960000Y-115040000D03*
D12*
X84960000Y-112500000D03*
X87500000Y-115040000D03*
X87500000Y-112500000D03*
X90040000Y-115040000D03*
X90040000Y-112500000D03*
D11*
X124920000Y-115040000D03*
D12*
X124920000Y-112500000D03*
X127460000Y-115040000D03*
X127460000Y-112500000D03*
X130000000Y-115040000D03*
X130000000Y-112500000D03*
D20*
X84960000Y-97420000D03*
D21*
X84960000Y-99960000D03*
X84960000Y-102500000D03*
X87500000Y-102500000D03*
X87500000Y-99960000D03*
X87500000Y-97420000D03*
D22*
X128358480Y-102326680D03*
X128358480Y-103596680D03*
X128358480Y-104866680D03*
X128358480Y-106136680D03*
X134158480Y-106136680D03*
X134158480Y-104866680D03*
X134158480Y-103596680D03*
X134158480Y-102326680D03*
D23*
X101500000Y-94800000D03*
D24*
X103000000Y-94800000D03*
X104500000Y-94800000D03*
X106000000Y-94800000D03*
X109000000Y-94800000D03*
X110500000Y-94800000D03*
X107500000Y-94800000D03*
X112000000Y-94800000D03*
X113500000Y-94800000D03*
D25*
X128358480Y-103596680D02*
X97630000Y-103596680D01*
X97630000Y-103596680D02*
X97196680Y-103596680D01*
X90350000Y-100450000D02*
X93496680Y-103596680D01*
X93496680Y-103596680D02*
X97630000Y-103596680D01*
X90350000Y-96560248D02*
X90350000Y-100450000D01*
X90350000Y-96750000D02*
X90350000Y-96560248D01*
X90350000Y-96560248D02*
X90360248Y-96560248D01*
X90350000Y-96560248D02*
X90350000Y-73516652D01*
X90350000Y-73516652D02*
X88450000Y-71616652D01*
X88450000Y-71616652D02*
X88450000Y-68270000D01*
X128358480Y-104866680D02*
X125886680Y-104866680D01*
X125886680Y-104866680D02*
X125160000Y-104140000D01*
X125160000Y-104140000D02*
X93180000Y-104140000D01*
X93180000Y-104140000D02*
X89688610Y-100648610D01*
X87148610Y-69508610D02*
X85910000Y-68270000D01*
X89688610Y-100648610D02*
X89688610Y-76521958D01*
X89688610Y-76521958D02*
X87148610Y-73981958D01*
X87148610Y-73981958D02*
X87148610Y-69508610D01*
X135000000Y-92750000D02*
X131585002Y-92750000D01*
X131585002Y-92750000D02*
X127630003Y-88795001D01*
X127630003Y-88795001D02*
X126755001Y-88795001D01*
X126755001Y-88795001D02*
X107093599Y-69133599D01*
X107093599Y-69133599D02*
X106230000Y-68270000D01*
X135000000Y-90210000D02*
X131045001Y-86255001D01*
X131045001Y-86255001D02*
X126755001Y-86255001D01*
X126755001Y-86255001D02*
X109633599Y-69133599D01*
X109633599Y-69133599D02*
X108770000Y-68270000D01*
X111310000Y-65730000D02*
X112661399Y-67081399D01*
X112661399Y-70411399D02*
X126580001Y-84330001D01*
X112661399Y-67081399D02*
X112661399Y-70411399D01*
X126580001Y-84330001D02*
X127380000Y-85130000D01*
X137390000Y-100220000D02*
X137880000Y-100710000D01*
X135128601Y-111311399D02*
X133071787Y-111311399D01*
X137880000Y-100710000D02*
X137880000Y-108560000D01*
X137880000Y-108560000D02*
X135128601Y-111311399D01*
X133071787Y-111311399D02*
X130800000Y-111311399D01*
X137390000Y-100220000D02*
X137480000Y-100310000D01*
X127380000Y-90210000D02*
X137390000Y-100220000D01*
X130868763Y-111311399D02*
X130800000Y-111311399D01*
X130800000Y-111311399D02*
X128648601Y-111311399D01*
X128648601Y-111311399D02*
X128323599Y-111636401D01*
X128323599Y-111636401D02*
X127460000Y-112500000D01*
X134158480Y-104866680D02*
X132908480Y-104866680D01*
X132908480Y-104866680D02*
X124841800Y-96800000D01*
X124841800Y-96800000D02*
X112333260Y-96800000D01*
X133458480Y-104866680D02*
X134158480Y-104866680D01*
X110500000Y-95000000D02*
X110500000Y-94633260D01*
X110500000Y-94633260D02*
X109341739Y-93474999D01*
X109341739Y-93474999D02*
X100739999Y-93474999D01*
X100739999Y-93474999D02*
X99250000Y-94964998D01*
X99250000Y-94964998D02*
X99250000Y-98086508D01*
X99250000Y-98086508D02*
X99250000Y-99500000D01*
X110500000Y-95000000D02*
X110533260Y-95000000D01*
X110533260Y-95000000D02*
X112333260Y-96800000D01*
X113125010Y-96125010D02*
X125353220Y-96125010D01*
X125353220Y-96125010D02*
X132824890Y-103596680D01*
X132824890Y-103596680D02*
X132908480Y-103596680D01*
X132908480Y-103596680D02*
X134158480Y-103596680D01*
X110266740Y-92900000D02*
X110566740Y-93200000D01*
X110566740Y-93200000D02*
X112000000Y-94633260D01*
X112000000Y-94633260D02*
X112000000Y-95000000D01*
X95250000Y-99500000D02*
X96249489Y-98500511D01*
X96249489Y-98500511D02*
X96249489Y-97050511D01*
X96249489Y-97050511D02*
X100400000Y-92900000D01*
X100400000Y-92900000D02*
X110266740Y-92900000D01*
X112000000Y-95000000D02*
X113125010Y-96125010D01*
D26*
X105950000Y-106900000D02*
X108580000Y-109530000D01*
X108580000Y-109530000D02*
X116370000Y-109530000D01*
X116370000Y-109530000D02*
X118300001Y-107599999D01*
X118300001Y-107599999D02*
X119000000Y-106900000D01*
X133660000Y-109540000D02*
X135658480Y-107541520D01*
X135658480Y-107541520D02*
X135658480Y-103126680D01*
X134858480Y-102326680D02*
X134158480Y-102326680D01*
X135658480Y-103126680D02*
X134858480Y-102326680D01*
X121640000Y-109540000D02*
X133660000Y-109540000D01*
X119000000Y-106900000D02*
X121640000Y-109540000D01*
X95250000Y-109660000D02*
X84460000Y-109660000D01*
X84460000Y-109660000D02*
X78000000Y-103200000D01*
X78000000Y-75003600D02*
X83370000Y-69633600D01*
X78000000Y-103200000D02*
X78000000Y-75003600D01*
X83370000Y-69633600D02*
X83370000Y-68270000D01*
X99250000Y-109660000D02*
X103190000Y-109660000D01*
X103190000Y-109660000D02*
X105950000Y-106900000D01*
X95250000Y-109660000D02*
X99250000Y-109660000D01*
D27*
G36*
X82796511Y-64316115D02*
X82310330Y-64640971D01*
X81985474Y-65127152D01*
X81871400Y-65700641D01*
X81871400Y-65759359D01*
X81985474Y-66332848D01*
X82296574Y-66798442D01*
X82271083Y-66803238D01*
X82054959Y-66942310D01*
X81909969Y-67154510D01*
X81858960Y-67406400D01*
X81858960Y-69133600D01*
X81903238Y-69368917D01*
X82042310Y-69585041D01*
X82116374Y-69635647D01*
X77374210Y-74377810D01*
X77182367Y-74664925D01*
X77182367Y-74664926D01*
X77114999Y-75003600D01*
X77115000Y-75003605D01*
X77115000Y-103199995D01*
X77114999Y-103200000D01*
X77136053Y-103305841D01*
X77182367Y-103538675D01*
X77374210Y-103825790D01*
X83834208Y-110285787D01*
X83834210Y-110285790D01*
X84026054Y-110413975D01*
X84121326Y-110477634D01*
X84460000Y-110545001D01*
X84460005Y-110545000D01*
X93847153Y-110545000D01*
X93863538Y-110584655D01*
X94322927Y-111044846D01*
X94923453Y-111294206D01*
X95573694Y-111294774D01*
X96174655Y-111046462D01*
X96634846Y-110587073D01*
X96652316Y-110545000D01*
X97847153Y-110545000D01*
X97863538Y-110584655D01*
X98322927Y-111044846D01*
X98923453Y-111294206D01*
X99573694Y-111294774D01*
X100174655Y-111046462D01*
X100634846Y-110587073D01*
X100652316Y-110545000D01*
X103189995Y-110545000D01*
X103190000Y-110545001D01*
X103472484Y-110488810D01*
X103528675Y-110477633D01*
X103815790Y-110285790D01*
X105866651Y-108234928D01*
X106033494Y-108235073D01*
X107954208Y-110155787D01*
X107954210Y-110155790D01*
X108241325Y-110347633D01*
X108291598Y-110357633D01*
X108580000Y-110415001D01*
X108580005Y-110415000D01*
X116369995Y-110415000D01*
X116370000Y-110415001D01*
X116658402Y-110357633D01*
X116708675Y-110347633D01*
X116995790Y-110155790D01*
X118916651Y-108234928D01*
X119083494Y-108235073D01*
X121014208Y-110165787D01*
X121014210Y-110165790D01*
X121301325Y-110357633D01*
X121357516Y-110368810D01*
X121640000Y-110425001D01*
X121640005Y-110425000D01*
X133659995Y-110425000D01*
X133660000Y-110425001D01*
X133942484Y-110368810D01*
X133998675Y-110357633D01*
X134285790Y-110165790D01*
X136284267Y-108167312D01*
X136284270Y-108167310D01*
X136412455Y-107975466D01*
X136476114Y-107880194D01*
X136543481Y-107541520D01*
X136543480Y-107541515D01*
X136543480Y-103126685D01*
X136543481Y-103126680D01*
X136476113Y-102788006D01*
X136476113Y-102788005D01*
X136284270Y-102500890D01*
X136284267Y-102500888D01*
X135804961Y-102021581D01*
X135761642Y-101791363D01*
X135622570Y-101575239D01*
X135410370Y-101430249D01*
X135158480Y-101379240D01*
X133158480Y-101379240D01*
X132923163Y-101423518D01*
X132707039Y-101562590D01*
X132562049Y-101774790D01*
X132511040Y-102026680D01*
X132511040Y-102208028D01*
X125890621Y-95587609D01*
X125644059Y-95422862D01*
X125353220Y-95365010D01*
X114585000Y-95365010D01*
X114585000Y-94217968D01*
X114502409Y-93802756D01*
X114267211Y-93450757D01*
X113915212Y-93215559D01*
X113500000Y-93132968D01*
X113084788Y-93215559D01*
X112750000Y-93439257D01*
X112415212Y-93215559D01*
X112000000Y-93132968D01*
X111645103Y-93203561D01*
X111540581Y-93099039D01*
X125988096Y-93099039D01*
X126148959Y-93487423D01*
X126524866Y-93902389D01*
X127030959Y-94141914D01*
X127253000Y-94020629D01*
X127253000Y-92877000D01*
X127507000Y-92877000D01*
X127507000Y-94020629D01*
X127729041Y-94141914D01*
X128235134Y-93902389D01*
X128611041Y-93487423D01*
X128771904Y-93099039D01*
X128649915Y-92877000D01*
X127507000Y-92877000D01*
X127253000Y-92877000D01*
X126110085Y-92877000D01*
X125988096Y-93099039D01*
X111540581Y-93099039D01*
X110804141Y-92362599D01*
X110557579Y-92197852D01*
X110266740Y-92140000D01*
X100400000Y-92140000D01*
X100109161Y-92197852D01*
X99862599Y-92362599D01*
X95712088Y-96513110D01*
X95547341Y-96759672D01*
X95489489Y-97050511D01*
X95489489Y-97865718D01*
X94926306Y-97865226D01*
X94325345Y-98113538D01*
X93865154Y-98572927D01*
X93615794Y-99173453D01*
X93615226Y-99823694D01*
X93863538Y-100424655D01*
X94322927Y-100884846D01*
X94923453Y-101134206D01*
X95573694Y-101134774D01*
X96174655Y-100886462D01*
X96634846Y-100427073D01*
X96884206Y-99826547D01*
X96884774Y-99176306D01*
X96812039Y-99000274D01*
X96951637Y-98791350D01*
X97009489Y-98500511D01*
X97009489Y-97365313D01*
X98490000Y-95884802D01*
X98490000Y-98045504D01*
X98325345Y-98113538D01*
X97865154Y-98572927D01*
X97615794Y-99173453D01*
X97615226Y-99823694D01*
X97863538Y-100424655D01*
X98322927Y-100884846D01*
X98923453Y-101134206D01*
X99573694Y-101134774D01*
X100174655Y-100886462D01*
X100634846Y-100427073D01*
X100884206Y-99826547D01*
X100884774Y-99176306D01*
X100636462Y-98575345D01*
X100177073Y-98115154D01*
X100010000Y-98045779D01*
X100010000Y-95279800D01*
X100402560Y-94887240D01*
X100402560Y-95800000D01*
X100446838Y-96035317D01*
X100585910Y-96251441D01*
X100798110Y-96396431D01*
X101050000Y-96447440D01*
X101950000Y-96447440D01*
X102185317Y-96403162D01*
X102401441Y-96264090D01*
X102402453Y-96262609D01*
X102584788Y-96384441D01*
X103000000Y-96467032D01*
X103415212Y-96384441D01*
X103750000Y-96160743D01*
X104084788Y-96384441D01*
X104500000Y-96467032D01*
X104915212Y-96384441D01*
X105250000Y-96160743D01*
X105584788Y-96384441D01*
X106000000Y-96467032D01*
X106415212Y-96384441D01*
X106750000Y-96160743D01*
X107084788Y-96384441D01*
X107500000Y-96467032D01*
X107915212Y-96384441D01*
X108267211Y-96149243D01*
X108269923Y-96145184D01*
X108322592Y-96207013D01*
X108705999Y-96394408D01*
X108873000Y-96267502D01*
X108873000Y-94927000D01*
X108853000Y-94927000D01*
X108853000Y-94673000D01*
X108873000Y-94673000D01*
X108873000Y-94653000D01*
X109127000Y-94653000D01*
X109127000Y-94673000D01*
X109147000Y-94673000D01*
X109147000Y-94927000D01*
X109127000Y-94927000D01*
X109127000Y-96267502D01*
X109294001Y-96394408D01*
X109677408Y-96207013D01*
X109730077Y-96145184D01*
X109732789Y-96149243D01*
X110084788Y-96384441D01*
X110500000Y-96467032D01*
X110854897Y-96396439D01*
X111795859Y-97337401D01*
X112042420Y-97502148D01*
X112081895Y-97510000D01*
X112333260Y-97560000D01*
X124526998Y-97560000D01*
X128346238Y-101379240D01*
X127358480Y-101379240D01*
X127123163Y-101423518D01*
X126907039Y-101562590D01*
X126762049Y-101774790D01*
X126711040Y-102026680D01*
X126711040Y-102626680D01*
X126750554Y-102836680D01*
X119984764Y-102836680D01*
X120050526Y-102770918D01*
X119935277Y-102655669D01*
X120171042Y-102593831D01*
X120347419Y-102092878D01*
X120318664Y-101562560D01*
X120171042Y-101206169D01*
X119935275Y-101144331D01*
X119179605Y-101900000D01*
X119193748Y-101914142D01*
X119014142Y-102093748D01*
X119000000Y-102079605D01*
X118985858Y-102093748D01*
X118806252Y-101914142D01*
X118820395Y-101900000D01*
X118064725Y-101144331D01*
X117828958Y-101206169D01*
X117652581Y-101707122D01*
X117681336Y-102237440D01*
X117828958Y-102593831D01*
X118064723Y-102655669D01*
X117949474Y-102770918D01*
X118015236Y-102836680D01*
X113451309Y-102836680D01*
X113631098Y-102657204D01*
X113834768Y-102166713D01*
X113835231Y-101635617D01*
X113632418Y-101144771D01*
X113452686Y-100964725D01*
X118244331Y-100964725D01*
X119000000Y-101720395D01*
X119755669Y-100964725D01*
X119693831Y-100728958D01*
X119192878Y-100552581D01*
X118662560Y-100581336D01*
X118306169Y-100728958D01*
X118244331Y-100964725D01*
X113452686Y-100964725D01*
X113257204Y-100768902D01*
X112766713Y-100565232D01*
X112235617Y-100564769D01*
X111744771Y-100767582D01*
X111368902Y-101142796D01*
X111165232Y-101633287D01*
X111164769Y-102164383D01*
X111367582Y-102655229D01*
X111548717Y-102836680D01*
X106901309Y-102836680D01*
X107081098Y-102657204D01*
X107284768Y-102166713D01*
X107285231Y-101635617D01*
X107082418Y-101144771D01*
X106707204Y-100768902D01*
X106216713Y-100565232D01*
X105685617Y-100564769D01*
X105194771Y-100767582D01*
X104818902Y-101142796D01*
X104615232Y-101633287D01*
X104614769Y-102164383D01*
X104817582Y-102655229D01*
X104998717Y-102836680D01*
X93811482Y-102836680D01*
X91110000Y-100135198D01*
X91110000Y-96611768D01*
X91120248Y-96560248D01*
X91110000Y-96508728D01*
X91110000Y-73516652D01*
X91052148Y-73225813D01*
X90887401Y-72979251D01*
X89210000Y-71301850D01*
X89210000Y-69559262D01*
X89509670Y-69359029D01*
X89720000Y-69044248D01*
X89930330Y-69359029D01*
X90416511Y-69683885D01*
X90990000Y-69797959D01*
X91563489Y-69683885D01*
X92049670Y-69359029D01*
X92265664Y-69035772D01*
X92323179Y-69158490D01*
X92755053Y-69552688D01*
X93170974Y-69724958D01*
X93403000Y-69603817D01*
X93403000Y-68397000D01*
X93383000Y-68397000D01*
X93383000Y-68143000D01*
X93403000Y-68143000D01*
X93403000Y-68123000D01*
X93657000Y-68123000D01*
X93657000Y-68143000D01*
X93677000Y-68143000D01*
X93677000Y-68397000D01*
X93657000Y-68397000D01*
X93657000Y-69603817D01*
X93889026Y-69724958D01*
X94304947Y-69552688D01*
X94736821Y-69158490D01*
X94794336Y-69035772D01*
X95010330Y-69359029D01*
X95496511Y-69683885D01*
X96070000Y-69797959D01*
X96643489Y-69683885D01*
X97129670Y-69359029D01*
X97340000Y-69044248D01*
X97550330Y-69359029D01*
X98036511Y-69683885D01*
X98610000Y-69797959D01*
X99183489Y-69683885D01*
X99669670Y-69359029D01*
X99880000Y-69044248D01*
X100090330Y-69359029D01*
X100576511Y-69683885D01*
X101150000Y-69797959D01*
X101723489Y-69683885D01*
X102209670Y-69359029D01*
X102420000Y-69044248D01*
X102630330Y-69359029D01*
X103116511Y-69683885D01*
X103690000Y-69797959D01*
X104263489Y-69683885D01*
X104749670Y-69359029D01*
X104960000Y-69044248D01*
X105170330Y-69359029D01*
X105656511Y-69683885D01*
X106230000Y-69797959D01*
X106607973Y-69722775D01*
X126217600Y-89332402D01*
X126236945Y-89345328D01*
X126026120Y-89660849D01*
X125916887Y-90210000D01*
X126026120Y-90759151D01*
X126337189Y-91224698D01*
X126741703Y-91494986D01*
X126524866Y-91597611D01*
X126148959Y-92012577D01*
X125988096Y-92400961D01*
X126110085Y-92623000D01*
X127253000Y-92623000D01*
X127253000Y-92603000D01*
X127507000Y-92603000D01*
X127507000Y-92623000D01*
X128649915Y-92623000D01*
X128674127Y-92578929D01*
X137120000Y-101024802D01*
X137120000Y-108245198D01*
X134813799Y-110551399D01*
X128648601Y-110551399D01*
X128357761Y-110609251D01*
X128111200Y-110773998D01*
X127837973Y-111047225D01*
X127460000Y-110972041D01*
X126886511Y-111086115D01*
X126400330Y-111410971D01*
X126184336Y-111734228D01*
X126126821Y-111611510D01*
X125694947Y-111217312D01*
X125279026Y-111045042D01*
X125047000Y-111166183D01*
X125047000Y-112373000D01*
X125067000Y-112373000D01*
X125067000Y-112627000D01*
X125047000Y-112627000D01*
X125047000Y-112647000D01*
X124793000Y-112647000D01*
X124793000Y-112627000D01*
X123585531Y-112627000D01*
X123465032Y-112859027D01*
X123713179Y-113388490D01*
X123899433Y-113558495D01*
X123821083Y-113573238D01*
X123604959Y-113712310D01*
X123459969Y-113924510D01*
X123408960Y-114176400D01*
X123408960Y-115903600D01*
X123453238Y-116138917D01*
X123592310Y-116355041D01*
X123804510Y-116500031D01*
X124056400Y-116551040D01*
X125783600Y-116551040D01*
X126018917Y-116506762D01*
X126235041Y-116367690D01*
X126380031Y-116155490D01*
X126388864Y-116111869D01*
X126400330Y-116129029D01*
X126886511Y-116453885D01*
X127460000Y-116567959D01*
X128033489Y-116453885D01*
X128519670Y-116129029D01*
X128730000Y-115814248D01*
X128940330Y-116129029D01*
X129426511Y-116453885D01*
X130000000Y-116567959D01*
X130341653Y-116500000D01*
X134415000Y-116500000D01*
X134573711Y-117297895D01*
X135025682Y-117974318D01*
X135702105Y-118426289D01*
X136500000Y-118585000D01*
X137297895Y-118426289D01*
X137974318Y-117974318D01*
X138426289Y-117297895D01*
X138585000Y-116500000D01*
X138426289Y-115702105D01*
X137974318Y-115025682D01*
X137297895Y-114573711D01*
X136500000Y-114415000D01*
X135702105Y-114573711D01*
X135025682Y-115025682D01*
X134573711Y-115702105D01*
X134415000Y-116500000D01*
X130341653Y-116500000D01*
X130573489Y-116453885D01*
X131059670Y-116129029D01*
X131384526Y-115642848D01*
X131498600Y-115069359D01*
X131498600Y-115010641D01*
X131384526Y-114437152D01*
X131059670Y-113950971D01*
X130788828Y-113770000D01*
X131059670Y-113589029D01*
X131384526Y-113102848D01*
X131498600Y-112529359D01*
X131498600Y-112470641D01*
X131419186Y-112071399D01*
X135128601Y-112071399D01*
X135419440Y-112013547D01*
X135666002Y-111848800D01*
X138417401Y-109097401D01*
X138582148Y-108850839D01*
X138640000Y-108560000D01*
X138640000Y-100710000D01*
X138582148Y-100419161D01*
X138417401Y-100172599D01*
X131754802Y-93510000D01*
X133787005Y-93510000D01*
X133957189Y-93764698D01*
X134422736Y-94075767D01*
X134971887Y-94185000D01*
X135028113Y-94185000D01*
X135577264Y-94075767D01*
X136042811Y-93764698D01*
X136353880Y-93299151D01*
X136463113Y-92750000D01*
X136353880Y-92200849D01*
X136042811Y-91735302D01*
X135660725Y-91480000D01*
X136042811Y-91224698D01*
X136353880Y-90759151D01*
X136463113Y-90210000D01*
X136353880Y-89660849D01*
X136042811Y-89195302D01*
X135660725Y-88940000D01*
X136042811Y-88684698D01*
X136353880Y-88219151D01*
X136463113Y-87670000D01*
X136353880Y-87120849D01*
X136042811Y-86655302D01*
X135660725Y-86400000D01*
X136042811Y-86144698D01*
X136353880Y-85679151D01*
X136463113Y-85130000D01*
X136353880Y-84580849D01*
X136042811Y-84115302D01*
X135577264Y-83804233D01*
X135028113Y-83695000D01*
X134971887Y-83695000D01*
X134422736Y-83804233D01*
X133957189Y-84115302D01*
X133646120Y-84580849D01*
X133536887Y-85130000D01*
X133646120Y-85679151D01*
X133957189Y-86144698D01*
X134339275Y-86400000D01*
X133957189Y-86655302D01*
X133646120Y-87120849D01*
X133536887Y-87670000D01*
X133537405Y-87672603D01*
X131582402Y-85717600D01*
X131335840Y-85552853D01*
X131045001Y-85495001D01*
X128770510Y-85495001D01*
X128843113Y-85130000D01*
X128733880Y-84580849D01*
X128422811Y-84115302D01*
X127957264Y-83804233D01*
X127408113Y-83695000D01*
X127351887Y-83695000D01*
X127074898Y-83750096D01*
X113421399Y-70096597D01*
X113421399Y-69696141D01*
X113490974Y-69724958D01*
X113723000Y-69603817D01*
X113723000Y-68397000D01*
X113703000Y-68397000D01*
X113703000Y-68143000D01*
X113723000Y-68143000D01*
X113723000Y-68123000D01*
X113977000Y-68123000D01*
X113977000Y-68143000D01*
X113997000Y-68143000D01*
X113997000Y-68397000D01*
X113977000Y-68397000D01*
X113977000Y-69603817D01*
X114209026Y-69724958D01*
X114624947Y-69552688D01*
X115056821Y-69158490D01*
X115114336Y-69035772D01*
X115330330Y-69359029D01*
X115816511Y-69683885D01*
X116390000Y-69797959D01*
X116963489Y-69683885D01*
X117449670Y-69359029D01*
X117660000Y-69044248D01*
X117870330Y-69359029D01*
X118356511Y-69683885D01*
X118930000Y-69797959D01*
X119503489Y-69683885D01*
X119989670Y-69359029D01*
X120200000Y-69044248D01*
X120410330Y-69359029D01*
X120896511Y-69683885D01*
X121470000Y-69797959D01*
X122043489Y-69683885D01*
X122529670Y-69359029D01*
X122740000Y-69044248D01*
X122950330Y-69359029D01*
X123436511Y-69683885D01*
X124010000Y-69797959D01*
X124583489Y-69683885D01*
X125069670Y-69359029D01*
X125280000Y-69044248D01*
X125490330Y-69359029D01*
X125976511Y-69683885D01*
X126550000Y-69797959D01*
X127123489Y-69683885D01*
X127609670Y-69359029D01*
X127820000Y-69044248D01*
X128030330Y-69359029D01*
X128516511Y-69683885D01*
X129090000Y-69797959D01*
X129663489Y-69683885D01*
X130149670Y-69359029D01*
X130365664Y-69035772D01*
X130423179Y-69158490D01*
X130855053Y-69552688D01*
X131270974Y-69724958D01*
X131503000Y-69603817D01*
X131503000Y-68397000D01*
X131757000Y-68397000D01*
X131757000Y-69603817D01*
X131989026Y-69724958D01*
X132404947Y-69552688D01*
X132836821Y-69158490D01*
X133084968Y-68629027D01*
X132964469Y-68397000D01*
X131757000Y-68397000D01*
X131503000Y-68397000D01*
X131483000Y-68397000D01*
X131483000Y-68143000D01*
X131503000Y-68143000D01*
X131503000Y-68123000D01*
X131757000Y-68123000D01*
X131757000Y-68143000D01*
X132964469Y-68143000D01*
X133084968Y-67910973D01*
X132836821Y-67381510D01*
X132418848Y-67000000D01*
X134415000Y-67000000D01*
X134573711Y-67797895D01*
X135025682Y-68474318D01*
X135702105Y-68926289D01*
X136500000Y-69085000D01*
X137297895Y-68926289D01*
X137974318Y-68474318D01*
X138426289Y-67797895D01*
X138585000Y-67000000D01*
X138426289Y-66202105D01*
X137974318Y-65525682D01*
X137297895Y-65073711D01*
X136500000Y-64915000D01*
X135702105Y-65073711D01*
X135025682Y-65525682D01*
X134573711Y-66202105D01*
X134415000Y-67000000D01*
X132418848Y-67000000D01*
X132418839Y-66999992D01*
X132689670Y-66819029D01*
X133014526Y-66332848D01*
X133128600Y-65759359D01*
X133128600Y-65700641D01*
X133014526Y-65127152D01*
X132689670Y-64640971D01*
X132203489Y-64316115D01*
X131670013Y-64210000D01*
X136930069Y-64210000D01*
X137871023Y-64397167D01*
X138609439Y-64890561D01*
X139102833Y-65628977D01*
X139290000Y-66569931D01*
X139290000Y-116930069D01*
X139102833Y-117871023D01*
X138609439Y-118609439D01*
X137871023Y-119102833D01*
X136930069Y-119290000D01*
X78069931Y-119290000D01*
X77128977Y-119102833D01*
X76390561Y-118609439D01*
X75897167Y-117871023D01*
X75710000Y-116930069D01*
X75710000Y-116500000D01*
X76415000Y-116500000D01*
X76573711Y-117297895D01*
X77025682Y-117974318D01*
X77702105Y-118426289D01*
X78500000Y-118585000D01*
X79297895Y-118426289D01*
X79974318Y-117974318D01*
X80426289Y-117297895D01*
X80585000Y-116500000D01*
X80426289Y-115702105D01*
X79974318Y-115025682D01*
X79297895Y-114573711D01*
X78500000Y-114415000D01*
X77702105Y-114573711D01*
X77025682Y-115025682D01*
X76573711Y-115702105D01*
X76415000Y-116500000D01*
X75710000Y-116500000D01*
X75710000Y-114176400D01*
X83448960Y-114176400D01*
X83448960Y-115903600D01*
X83493238Y-116138917D01*
X83632310Y-116355041D01*
X83844510Y-116500031D01*
X84096400Y-116551040D01*
X85823600Y-116551040D01*
X86058917Y-116506762D01*
X86275041Y-116367690D01*
X86420031Y-116155490D01*
X86428864Y-116111869D01*
X86440330Y-116129029D01*
X86926511Y-116453885D01*
X87500000Y-116567959D01*
X88073489Y-116453885D01*
X88559670Y-116129029D01*
X88770000Y-115814248D01*
X88980330Y-116129029D01*
X89466511Y-116453885D01*
X90040000Y-116567959D01*
X90613489Y-116453885D01*
X91099670Y-116129029D01*
X91424526Y-115642848D01*
X91538600Y-115069359D01*
X91538600Y-115010641D01*
X91424526Y-114437152D01*
X91099670Y-113950971D01*
X90828828Y-113770000D01*
X91099670Y-113589029D01*
X91424526Y-113102848D01*
X91538600Y-112529359D01*
X91538600Y-112470641D01*
X91473025Y-112140973D01*
X123465032Y-112140973D01*
X123585531Y-112373000D01*
X124793000Y-112373000D01*
X124793000Y-111166183D01*
X124560974Y-111045042D01*
X124145053Y-111217312D01*
X123713179Y-111611510D01*
X123465032Y-112140973D01*
X91473025Y-112140973D01*
X91424526Y-111897152D01*
X91099670Y-111410971D01*
X90613489Y-111086115D01*
X90040000Y-110972041D01*
X89466511Y-111086115D01*
X88980330Y-111410971D01*
X88770000Y-111725752D01*
X88559670Y-111410971D01*
X88073489Y-111086115D01*
X87500000Y-110972041D01*
X86926511Y-111086115D01*
X86440330Y-111410971D01*
X86224336Y-111734228D01*
X86166821Y-111611510D01*
X85734947Y-111217312D01*
X85319026Y-111045042D01*
X85087000Y-111166183D01*
X85087000Y-112373000D01*
X85107000Y-112373000D01*
X85107000Y-112627000D01*
X85087000Y-112627000D01*
X85087000Y-112647000D01*
X84833000Y-112647000D01*
X84833000Y-112627000D01*
X83625531Y-112627000D01*
X83505032Y-112859027D01*
X83753179Y-113388490D01*
X83939433Y-113558495D01*
X83861083Y-113573238D01*
X83644959Y-113712310D01*
X83499969Y-113924510D01*
X83448960Y-114176400D01*
X75710000Y-114176400D01*
X75710000Y-112140973D01*
X83505032Y-112140973D01*
X83625531Y-112373000D01*
X84833000Y-112373000D01*
X84833000Y-111166183D01*
X84600974Y-111045042D01*
X84185053Y-111217312D01*
X83753179Y-111611510D01*
X83505032Y-112140973D01*
X75710000Y-112140973D01*
X75710000Y-67000000D01*
X76415000Y-67000000D01*
X76573711Y-67797895D01*
X77025682Y-68474318D01*
X77702105Y-68926289D01*
X78500000Y-69085000D01*
X79297895Y-68926289D01*
X79974318Y-68474318D01*
X80426289Y-67797895D01*
X80585000Y-67000000D01*
X80426289Y-66202105D01*
X79974318Y-65525682D01*
X79297895Y-65073711D01*
X78500000Y-64915000D01*
X77702105Y-65073711D01*
X77025682Y-65525682D01*
X76573711Y-66202105D01*
X76415000Y-67000000D01*
X75710000Y-67000000D01*
X75710000Y-66569931D01*
X75897167Y-65628977D01*
X76390561Y-64890561D01*
X77074008Y-64433896D01*
X81985051Y-64433896D01*
X81993651Y-64483571D01*
X82020899Y-64525985D01*
X82062502Y-64554457D01*
X82111905Y-64564500D01*
X82188100Y-64564557D01*
X82223839Y-64559453D01*
X82268455Y-64535981D01*
X82300424Y-64497001D01*
X82314709Y-64448655D01*
X82314714Y-64448598D01*
X82306515Y-64391341D01*
X82279235Y-64348947D01*
X82237610Y-64320506D01*
X82188200Y-64310500D01*
X82112000Y-64310500D01*
X82069217Y-64317923D01*
X82026065Y-64343989D01*
X81996455Y-64384790D01*
X81985051Y-64433896D01*
X77074008Y-64433896D01*
X77128977Y-64397167D01*
X78069931Y-64210000D01*
X83329987Y-64210000D01*
X82796511Y-64316115D01*
X82796511Y-64316115D01*
G37*
X82796511Y-64316115D02*
X82310330Y-64640971D01*
X81985474Y-65127152D01*
X81871400Y-65700641D01*
X81871400Y-65759359D01*
X81985474Y-66332848D01*
X82296574Y-66798442D01*
X82271083Y-66803238D01*
X82054959Y-66942310D01*
X81909969Y-67154510D01*
X81858960Y-67406400D01*
X81858960Y-69133600D01*
X81903238Y-69368917D01*
X82042310Y-69585041D01*
X82116374Y-69635647D01*
X77374210Y-74377810D01*
X77182367Y-74664925D01*
X77182367Y-74664926D01*
X77114999Y-75003600D01*
X77115000Y-75003605D01*
X77115000Y-103199995D01*
X77114999Y-103200000D01*
X77136053Y-103305841D01*
X77182367Y-103538675D01*
X77374210Y-103825790D01*
X83834208Y-110285787D01*
X83834210Y-110285790D01*
X84026054Y-110413975D01*
X84121326Y-110477634D01*
X84460000Y-110545001D01*
X84460005Y-110545000D01*
X93847153Y-110545000D01*
X93863538Y-110584655D01*
X94322927Y-111044846D01*
X94923453Y-111294206D01*
X95573694Y-111294774D01*
X96174655Y-111046462D01*
X96634846Y-110587073D01*
X96652316Y-110545000D01*
X97847153Y-110545000D01*
X97863538Y-110584655D01*
X98322927Y-111044846D01*
X98923453Y-111294206D01*
X99573694Y-111294774D01*
X100174655Y-111046462D01*
X100634846Y-110587073D01*
X100652316Y-110545000D01*
X103189995Y-110545000D01*
X103190000Y-110545001D01*
X103472484Y-110488810D01*
X103528675Y-110477633D01*
X103815790Y-110285790D01*
X105866651Y-108234928D01*
X106033494Y-108235073D01*
X107954208Y-110155787D01*
X107954210Y-110155790D01*
X108241325Y-110347633D01*
X108291598Y-110357633D01*
X108580000Y-110415001D01*
X108580005Y-110415000D01*
X116369995Y-110415000D01*
X116370000Y-110415001D01*
X116658402Y-110357633D01*
X116708675Y-110347633D01*
X116995790Y-110155790D01*
X118916651Y-108234928D01*
X119083494Y-108235073D01*
X121014208Y-110165787D01*
X121014210Y-110165790D01*
X121301325Y-110357633D01*
X121357516Y-110368810D01*
X121640000Y-110425001D01*
X121640005Y-110425000D01*
X133659995Y-110425000D01*
X133660000Y-110425001D01*
X133942484Y-110368810D01*
X133998675Y-110357633D01*
X134285790Y-110165790D01*
X136284267Y-108167312D01*
X136284270Y-108167310D01*
X136412455Y-107975466D01*
X136476114Y-107880194D01*
X136543481Y-107541520D01*
X136543480Y-107541515D01*
X136543480Y-103126685D01*
X136543481Y-103126680D01*
X136476113Y-102788006D01*
X136476113Y-102788005D01*
X136284270Y-102500890D01*
X136284267Y-102500888D01*
X135804961Y-102021581D01*
X135761642Y-101791363D01*
X135622570Y-101575239D01*
X135410370Y-101430249D01*
X135158480Y-101379240D01*
X133158480Y-101379240D01*
X132923163Y-101423518D01*
X132707039Y-101562590D01*
X132562049Y-101774790D01*
X132511040Y-102026680D01*
X132511040Y-102208028D01*
X125890621Y-95587609D01*
X125644059Y-95422862D01*
X125353220Y-95365010D01*
X114585000Y-95365010D01*
X114585000Y-94217968D01*
X114502409Y-93802756D01*
X114267211Y-93450757D01*
X113915212Y-93215559D01*
X113500000Y-93132968D01*
X113084788Y-93215559D01*
X112750000Y-93439257D01*
X112415212Y-93215559D01*
X112000000Y-93132968D01*
X111645103Y-93203561D01*
X111540581Y-93099039D01*
X125988096Y-93099039D01*
X126148959Y-93487423D01*
X126524866Y-93902389D01*
X127030959Y-94141914D01*
X127253000Y-94020629D01*
X127253000Y-92877000D01*
X127507000Y-92877000D01*
X127507000Y-94020629D01*
X127729041Y-94141914D01*
X128235134Y-93902389D01*
X128611041Y-93487423D01*
X128771904Y-93099039D01*
X128649915Y-92877000D01*
X127507000Y-92877000D01*
X127253000Y-92877000D01*
X126110085Y-92877000D01*
X125988096Y-93099039D01*
X111540581Y-93099039D01*
X110804141Y-92362599D01*
X110557579Y-92197852D01*
X110266740Y-92140000D01*
X100400000Y-92140000D01*
X100109161Y-92197852D01*
X99862599Y-92362599D01*
X95712088Y-96513110D01*
X95547341Y-96759672D01*
X95489489Y-97050511D01*
X95489489Y-97865718D01*
X94926306Y-97865226D01*
X94325345Y-98113538D01*
X93865154Y-98572927D01*
X93615794Y-99173453D01*
X93615226Y-99823694D01*
X93863538Y-100424655D01*
X94322927Y-100884846D01*
X94923453Y-101134206D01*
X95573694Y-101134774D01*
X96174655Y-100886462D01*
X96634846Y-100427073D01*
X96884206Y-99826547D01*
X96884774Y-99176306D01*
X96812039Y-99000274D01*
X96951637Y-98791350D01*
X97009489Y-98500511D01*
X97009489Y-97365313D01*
X98490000Y-95884802D01*
X98490000Y-98045504D01*
X98325345Y-98113538D01*
X97865154Y-98572927D01*
X97615794Y-99173453D01*
X97615226Y-99823694D01*
X97863538Y-100424655D01*
X98322927Y-100884846D01*
X98923453Y-101134206D01*
X99573694Y-101134774D01*
X100174655Y-100886462D01*
X100634846Y-100427073D01*
X100884206Y-99826547D01*
X100884774Y-99176306D01*
X100636462Y-98575345D01*
X100177073Y-98115154D01*
X100010000Y-98045779D01*
X100010000Y-95279800D01*
X100402560Y-94887240D01*
X100402560Y-95800000D01*
X100446838Y-96035317D01*
X100585910Y-96251441D01*
X100798110Y-96396431D01*
X101050000Y-96447440D01*
X101950000Y-96447440D01*
X102185317Y-96403162D01*
X102401441Y-96264090D01*
X102402453Y-96262609D01*
X102584788Y-96384441D01*
X103000000Y-96467032D01*
X103415212Y-96384441D01*
X103750000Y-96160743D01*
X104084788Y-96384441D01*
X104500000Y-96467032D01*
X104915212Y-96384441D01*
X105250000Y-96160743D01*
X105584788Y-96384441D01*
X106000000Y-96467032D01*
X106415212Y-96384441D01*
X106750000Y-96160743D01*
X107084788Y-96384441D01*
X107500000Y-96467032D01*
X107915212Y-96384441D01*
X108267211Y-96149243D01*
X108269923Y-96145184D01*
X108322592Y-96207013D01*
X108705999Y-96394408D01*
X108873000Y-96267502D01*
X108873000Y-94927000D01*
X108853000Y-94927000D01*
X108853000Y-94673000D01*
X108873000Y-94673000D01*
X108873000Y-94653000D01*
X109127000Y-94653000D01*
X109127000Y-94673000D01*
X109147000Y-94673000D01*
X109147000Y-94927000D01*
X109127000Y-94927000D01*
X109127000Y-96267502D01*
X109294001Y-96394408D01*
X109677408Y-96207013D01*
X109730077Y-96145184D01*
X109732789Y-96149243D01*
X110084788Y-96384441D01*
X110500000Y-96467032D01*
X110854897Y-96396439D01*
X111795859Y-97337401D01*
X112042420Y-97502148D01*
X112081895Y-97510000D01*
X112333260Y-97560000D01*
X124526998Y-97560000D01*
X128346238Y-101379240D01*
X127358480Y-101379240D01*
X127123163Y-101423518D01*
X126907039Y-101562590D01*
X126762049Y-101774790D01*
X126711040Y-102026680D01*
X126711040Y-102626680D01*
X126750554Y-102836680D01*
X119984764Y-102836680D01*
X120050526Y-102770918D01*
X119935277Y-102655669D01*
X120171042Y-102593831D01*
X120347419Y-102092878D01*
X120318664Y-101562560D01*
X120171042Y-101206169D01*
X119935275Y-101144331D01*
X119179605Y-101900000D01*
X119193748Y-101914142D01*
X119014142Y-102093748D01*
X119000000Y-102079605D01*
X118985858Y-102093748D01*
X118806252Y-101914142D01*
X118820395Y-101900000D01*
X118064725Y-101144331D01*
X117828958Y-101206169D01*
X117652581Y-101707122D01*
X117681336Y-102237440D01*
X117828958Y-102593831D01*
X118064723Y-102655669D01*
X117949474Y-102770918D01*
X118015236Y-102836680D01*
X113451309Y-102836680D01*
X113631098Y-102657204D01*
X113834768Y-102166713D01*
X113835231Y-101635617D01*
X113632418Y-101144771D01*
X113452686Y-100964725D01*
X118244331Y-100964725D01*
X119000000Y-101720395D01*
X119755669Y-100964725D01*
X119693831Y-100728958D01*
X119192878Y-100552581D01*
X118662560Y-100581336D01*
X118306169Y-100728958D01*
X118244331Y-100964725D01*
X113452686Y-100964725D01*
X113257204Y-100768902D01*
X112766713Y-100565232D01*
X112235617Y-100564769D01*
X111744771Y-100767582D01*
X111368902Y-101142796D01*
X111165232Y-101633287D01*
X111164769Y-102164383D01*
X111367582Y-102655229D01*
X111548717Y-102836680D01*
X106901309Y-102836680D01*
X107081098Y-102657204D01*
X107284768Y-102166713D01*
X107285231Y-101635617D01*
X107082418Y-101144771D01*
X106707204Y-100768902D01*
X106216713Y-100565232D01*
X105685617Y-100564769D01*
X105194771Y-100767582D01*
X104818902Y-101142796D01*
X104615232Y-101633287D01*
X104614769Y-102164383D01*
X104817582Y-102655229D01*
X104998717Y-102836680D01*
X93811482Y-102836680D01*
X91110000Y-100135198D01*
X91110000Y-96611768D01*
X91120248Y-96560248D01*
X91110000Y-96508728D01*
X91110000Y-73516652D01*
X91052148Y-73225813D01*
X90887401Y-72979251D01*
X89210000Y-71301850D01*
X89210000Y-69559262D01*
X89509670Y-69359029D01*
X89720000Y-69044248D01*
X89930330Y-69359029D01*
X90416511Y-69683885D01*
X90990000Y-69797959D01*
X91563489Y-69683885D01*
X92049670Y-69359029D01*
X92265664Y-69035772D01*
X92323179Y-69158490D01*
X92755053Y-69552688D01*
X93170974Y-69724958D01*
X93403000Y-69603817D01*
X93403000Y-68397000D01*
X93383000Y-68397000D01*
X93383000Y-68143000D01*
X93403000Y-68143000D01*
X93403000Y-68123000D01*
X93657000Y-68123000D01*
X93657000Y-68143000D01*
X93677000Y-68143000D01*
X93677000Y-68397000D01*
X93657000Y-68397000D01*
X93657000Y-69603817D01*
X93889026Y-69724958D01*
X94304947Y-69552688D01*
X94736821Y-69158490D01*
X94794336Y-69035772D01*
X95010330Y-69359029D01*
X95496511Y-69683885D01*
X96070000Y-69797959D01*
X96643489Y-69683885D01*
X97129670Y-69359029D01*
X97340000Y-69044248D01*
X97550330Y-69359029D01*
X98036511Y-69683885D01*
X98610000Y-69797959D01*
X99183489Y-69683885D01*
X99669670Y-69359029D01*
X99880000Y-69044248D01*
X100090330Y-69359029D01*
X100576511Y-69683885D01*
X101150000Y-69797959D01*
X101723489Y-69683885D01*
X102209670Y-69359029D01*
X102420000Y-69044248D01*
X102630330Y-69359029D01*
X103116511Y-69683885D01*
X103690000Y-69797959D01*
X104263489Y-69683885D01*
X104749670Y-69359029D01*
X104960000Y-69044248D01*
X105170330Y-69359029D01*
X105656511Y-69683885D01*
X106230000Y-69797959D01*
X106607973Y-69722775D01*
X126217600Y-89332402D01*
X126236945Y-89345328D01*
X126026120Y-89660849D01*
X125916887Y-90210000D01*
X126026120Y-90759151D01*
X126337189Y-91224698D01*
X126741703Y-91494986D01*
X126524866Y-91597611D01*
X126148959Y-92012577D01*
X125988096Y-92400961D01*
X126110085Y-92623000D01*
X127253000Y-92623000D01*
X127253000Y-92603000D01*
X127507000Y-92603000D01*
X127507000Y-92623000D01*
X128649915Y-92623000D01*
X128674127Y-92578929D01*
X137120000Y-101024802D01*
X137120000Y-108245198D01*
X134813799Y-110551399D01*
X128648601Y-110551399D01*
X128357761Y-110609251D01*
X128111200Y-110773998D01*
X127837973Y-111047225D01*
X127460000Y-110972041D01*
X126886511Y-111086115D01*
X126400330Y-111410971D01*
X126184336Y-111734228D01*
X126126821Y-111611510D01*
X125694947Y-111217312D01*
X125279026Y-111045042D01*
X125047000Y-111166183D01*
X125047000Y-112373000D01*
X125067000Y-112373000D01*
X125067000Y-112627000D01*
X125047000Y-112627000D01*
X125047000Y-112647000D01*
X124793000Y-112647000D01*
X124793000Y-112627000D01*
X123585531Y-112627000D01*
X123465032Y-112859027D01*
X123713179Y-113388490D01*
X123899433Y-113558495D01*
X123821083Y-113573238D01*
X123604959Y-113712310D01*
X123459969Y-113924510D01*
X123408960Y-114176400D01*
X123408960Y-115903600D01*
X123453238Y-116138917D01*
X123592310Y-116355041D01*
X123804510Y-116500031D01*
X124056400Y-116551040D01*
X125783600Y-116551040D01*
X126018917Y-116506762D01*
X126235041Y-116367690D01*
X126380031Y-116155490D01*
X126388864Y-116111869D01*
X126400330Y-116129029D01*
X126886511Y-116453885D01*
X127460000Y-116567959D01*
X128033489Y-116453885D01*
X128519670Y-116129029D01*
X128730000Y-115814248D01*
X128940330Y-116129029D01*
X129426511Y-116453885D01*
X130000000Y-116567959D01*
X130341653Y-116500000D01*
X134415000Y-116500000D01*
X134573711Y-117297895D01*
X135025682Y-117974318D01*
X135702105Y-118426289D01*
X136500000Y-118585000D01*
X137297895Y-118426289D01*
X137974318Y-117974318D01*
X138426289Y-117297895D01*
X138585000Y-116500000D01*
X138426289Y-115702105D01*
X137974318Y-115025682D01*
X137297895Y-114573711D01*
X136500000Y-114415000D01*
X135702105Y-114573711D01*
X135025682Y-115025682D01*
X134573711Y-115702105D01*
X134415000Y-116500000D01*
X130341653Y-116500000D01*
X130573489Y-116453885D01*
X131059670Y-116129029D01*
X131384526Y-115642848D01*
X131498600Y-115069359D01*
X131498600Y-115010641D01*
X131384526Y-114437152D01*
X131059670Y-113950971D01*
X130788828Y-113770000D01*
X131059670Y-113589029D01*
X131384526Y-113102848D01*
X131498600Y-112529359D01*
X131498600Y-112470641D01*
X131419186Y-112071399D01*
X135128601Y-112071399D01*
X135419440Y-112013547D01*
X135666002Y-111848800D01*
X138417401Y-109097401D01*
X138582148Y-108850839D01*
X138640000Y-108560000D01*
X138640000Y-100710000D01*
X138582148Y-100419161D01*
X138417401Y-100172599D01*
X131754802Y-93510000D01*
X133787005Y-93510000D01*
X133957189Y-93764698D01*
X134422736Y-94075767D01*
X134971887Y-94185000D01*
X135028113Y-94185000D01*
X135577264Y-94075767D01*
X136042811Y-93764698D01*
X136353880Y-93299151D01*
X136463113Y-92750000D01*
X136353880Y-92200849D01*
X136042811Y-91735302D01*
X135660725Y-91480000D01*
X136042811Y-91224698D01*
X136353880Y-90759151D01*
X136463113Y-90210000D01*
X136353880Y-89660849D01*
X136042811Y-89195302D01*
X135660725Y-88940000D01*
X136042811Y-88684698D01*
X136353880Y-88219151D01*
X136463113Y-87670000D01*
X136353880Y-87120849D01*
X136042811Y-86655302D01*
X135660725Y-86400000D01*
X136042811Y-86144698D01*
X136353880Y-85679151D01*
X136463113Y-85130000D01*
X136353880Y-84580849D01*
X136042811Y-84115302D01*
X135577264Y-83804233D01*
X135028113Y-83695000D01*
X134971887Y-83695000D01*
X134422736Y-83804233D01*
X133957189Y-84115302D01*
X133646120Y-84580849D01*
X133536887Y-85130000D01*
X133646120Y-85679151D01*
X133957189Y-86144698D01*
X134339275Y-86400000D01*
X133957189Y-86655302D01*
X133646120Y-87120849D01*
X133536887Y-87670000D01*
X133537405Y-87672603D01*
X131582402Y-85717600D01*
X131335840Y-85552853D01*
X131045001Y-85495001D01*
X128770510Y-85495001D01*
X128843113Y-85130000D01*
X128733880Y-84580849D01*
X128422811Y-84115302D01*
X127957264Y-83804233D01*
X127408113Y-83695000D01*
X127351887Y-83695000D01*
X127074898Y-83750096D01*
X113421399Y-70096597D01*
X113421399Y-69696141D01*
X113490974Y-69724958D01*
X113723000Y-69603817D01*
X113723000Y-68397000D01*
X113703000Y-68397000D01*
X113703000Y-68143000D01*
X113723000Y-68143000D01*
X113723000Y-68123000D01*
X113977000Y-68123000D01*
X113977000Y-68143000D01*
X113997000Y-68143000D01*
X113997000Y-68397000D01*
X113977000Y-68397000D01*
X113977000Y-69603817D01*
X114209026Y-69724958D01*
X114624947Y-69552688D01*
X115056821Y-69158490D01*
X115114336Y-69035772D01*
X115330330Y-69359029D01*
X115816511Y-69683885D01*
X116390000Y-69797959D01*
X116963489Y-69683885D01*
X117449670Y-69359029D01*
X117660000Y-69044248D01*
X117870330Y-69359029D01*
X118356511Y-69683885D01*
X118930000Y-69797959D01*
X119503489Y-69683885D01*
X119989670Y-69359029D01*
X120200000Y-69044248D01*
X120410330Y-69359029D01*
X120896511Y-69683885D01*
X121470000Y-69797959D01*
X122043489Y-69683885D01*
X122529670Y-69359029D01*
X122740000Y-69044248D01*
X122950330Y-69359029D01*
X123436511Y-69683885D01*
X124010000Y-69797959D01*
X124583489Y-69683885D01*
X125069670Y-69359029D01*
X125280000Y-69044248D01*
X125490330Y-69359029D01*
X125976511Y-69683885D01*
X126550000Y-69797959D01*
X127123489Y-69683885D01*
X127609670Y-69359029D01*
X127820000Y-69044248D01*
X128030330Y-69359029D01*
X128516511Y-69683885D01*
X129090000Y-69797959D01*
X129663489Y-69683885D01*
X130149670Y-69359029D01*
X130365664Y-69035772D01*
X130423179Y-69158490D01*
X130855053Y-69552688D01*
X131270974Y-69724958D01*
X131503000Y-69603817D01*
X131503000Y-68397000D01*
X131757000Y-68397000D01*
X131757000Y-69603817D01*
X131989026Y-69724958D01*
X132404947Y-69552688D01*
X132836821Y-69158490D01*
X133084968Y-68629027D01*
X132964469Y-68397000D01*
X131757000Y-68397000D01*
X131503000Y-68397000D01*
X131483000Y-68397000D01*
X131483000Y-68143000D01*
X131503000Y-68143000D01*
X131503000Y-68123000D01*
X131757000Y-68123000D01*
X131757000Y-68143000D01*
X132964469Y-68143000D01*
X133084968Y-67910973D01*
X132836821Y-67381510D01*
X132418848Y-67000000D01*
X134415000Y-67000000D01*
X134573711Y-67797895D01*
X135025682Y-68474318D01*
X135702105Y-68926289D01*
X136500000Y-69085000D01*
X137297895Y-68926289D01*
X137974318Y-68474318D01*
X138426289Y-67797895D01*
X138585000Y-67000000D01*
X138426289Y-66202105D01*
X137974318Y-65525682D01*
X137297895Y-65073711D01*
X136500000Y-64915000D01*
X135702105Y-65073711D01*
X135025682Y-65525682D01*
X134573711Y-66202105D01*
X134415000Y-67000000D01*
X132418848Y-67000000D01*
X132418839Y-66999992D01*
X132689670Y-66819029D01*
X133014526Y-66332848D01*
X133128600Y-65759359D01*
X133128600Y-65700641D01*
X133014526Y-65127152D01*
X132689670Y-64640971D01*
X132203489Y-64316115D01*
X131670013Y-64210000D01*
X136930069Y-64210000D01*
X137871023Y-64397167D01*
X138609439Y-64890561D01*
X139102833Y-65628977D01*
X139290000Y-66569931D01*
X139290000Y-116930069D01*
X139102833Y-117871023D01*
X138609439Y-118609439D01*
X137871023Y-119102833D01*
X136930069Y-119290000D01*
X78069931Y-119290000D01*
X77128977Y-119102833D01*
X76390561Y-118609439D01*
X75897167Y-117871023D01*
X75710000Y-116930069D01*
X75710000Y-116500000D01*
X76415000Y-116500000D01*
X76573711Y-117297895D01*
X77025682Y-117974318D01*
X77702105Y-118426289D01*
X78500000Y-118585000D01*
X79297895Y-118426289D01*
X79974318Y-117974318D01*
X80426289Y-117297895D01*
X80585000Y-116500000D01*
X80426289Y-115702105D01*
X79974318Y-115025682D01*
X79297895Y-114573711D01*
X78500000Y-114415000D01*
X77702105Y-114573711D01*
X77025682Y-115025682D01*
X76573711Y-115702105D01*
X76415000Y-116500000D01*
X75710000Y-116500000D01*
X75710000Y-114176400D01*
X83448960Y-114176400D01*
X83448960Y-115903600D01*
X83493238Y-116138917D01*
X83632310Y-116355041D01*
X83844510Y-116500031D01*
X84096400Y-116551040D01*
X85823600Y-116551040D01*
X86058917Y-116506762D01*
X86275041Y-116367690D01*
X86420031Y-116155490D01*
X86428864Y-116111869D01*
X86440330Y-116129029D01*
X86926511Y-116453885D01*
X87500000Y-116567959D01*
X88073489Y-116453885D01*
X88559670Y-116129029D01*
X88770000Y-115814248D01*
X88980330Y-116129029D01*
X89466511Y-116453885D01*
X90040000Y-116567959D01*
X90613489Y-116453885D01*
X91099670Y-116129029D01*
X91424526Y-115642848D01*
X91538600Y-115069359D01*
X91538600Y-115010641D01*
X91424526Y-114437152D01*
X91099670Y-113950971D01*
X90828828Y-113770000D01*
X91099670Y-113589029D01*
X91424526Y-113102848D01*
X91538600Y-112529359D01*
X91538600Y-112470641D01*
X91473025Y-112140973D01*
X123465032Y-112140973D01*
X123585531Y-112373000D01*
X124793000Y-112373000D01*
X124793000Y-111166183D01*
X124560974Y-111045042D01*
X124145053Y-111217312D01*
X123713179Y-111611510D01*
X123465032Y-112140973D01*
X91473025Y-112140973D01*
X91424526Y-111897152D01*
X91099670Y-111410971D01*
X90613489Y-111086115D01*
X90040000Y-110972041D01*
X89466511Y-111086115D01*
X88980330Y-111410971D01*
X88770000Y-111725752D01*
X88559670Y-111410971D01*
X88073489Y-111086115D01*
X87500000Y-110972041D01*
X86926511Y-111086115D01*
X86440330Y-111410971D01*
X86224336Y-111734228D01*
X86166821Y-111611510D01*
X85734947Y-111217312D01*
X85319026Y-111045042D01*
X85087000Y-111166183D01*
X85087000Y-112373000D01*
X85107000Y-112373000D01*
X85107000Y-112627000D01*
X85087000Y-112627000D01*
X85087000Y-112647000D01*
X84833000Y-112647000D01*
X84833000Y-112627000D01*
X83625531Y-112627000D01*
X83505032Y-112859027D01*
X83753179Y-113388490D01*
X83939433Y-113558495D01*
X83861083Y-113573238D01*
X83644959Y-113712310D01*
X83499969Y-113924510D01*
X83448960Y-114176400D01*
X75710000Y-114176400D01*
X75710000Y-112140973D01*
X83505032Y-112140973D01*
X83625531Y-112373000D01*
X84833000Y-112373000D01*
X84833000Y-111166183D01*
X84600974Y-111045042D01*
X84185053Y-111217312D01*
X83753179Y-111611510D01*
X83505032Y-112140973D01*
X75710000Y-112140973D01*
X75710000Y-67000000D01*
X76415000Y-67000000D01*
X76573711Y-67797895D01*
X77025682Y-68474318D01*
X77702105Y-68926289D01*
X78500000Y-69085000D01*
X79297895Y-68926289D01*
X79974318Y-68474318D01*
X80426289Y-67797895D01*
X80585000Y-67000000D01*
X80426289Y-66202105D01*
X79974318Y-65525682D01*
X79297895Y-65073711D01*
X78500000Y-64915000D01*
X77702105Y-65073711D01*
X77025682Y-65525682D01*
X76573711Y-66202105D01*
X76415000Y-67000000D01*
X75710000Y-67000000D01*
X75710000Y-66569931D01*
X75897167Y-65628977D01*
X76390561Y-64890561D01*
X77074008Y-64433896D01*
X81985051Y-64433896D01*
X81993651Y-64483571D01*
X82020899Y-64525985D01*
X82062502Y-64554457D01*
X82111905Y-64564500D01*
X82188100Y-64564557D01*
X82223839Y-64559453D01*
X82268455Y-64535981D01*
X82300424Y-64497001D01*
X82314709Y-64448655D01*
X82314714Y-64448598D01*
X82306515Y-64391341D01*
X82279235Y-64348947D01*
X82237610Y-64320506D01*
X82188200Y-64310500D01*
X82112000Y-64310500D01*
X82069217Y-64317923D01*
X82026065Y-64343989D01*
X81996455Y-64384790D01*
X81985051Y-64433896D01*
X77074008Y-64433896D01*
X77128977Y-64397167D01*
X78069931Y-64210000D01*
X83329987Y-64210000D01*
X82796511Y-64316115D01*
G36*
X84850330Y-69359029D02*
X85336511Y-69683885D01*
X85910000Y-69797959D01*
X86287973Y-69722775D01*
X86388610Y-69823412D01*
X86388610Y-71901911D01*
X85960000Y-71816655D01*
X85386511Y-71930729D01*
X84900330Y-72255585D01*
X84885500Y-72277780D01*
X84821927Y-72124302D01*
X84643299Y-71945673D01*
X84409910Y-71849000D01*
X83705750Y-71849000D01*
X83547000Y-72007750D01*
X83547000Y-73373000D01*
X83567000Y-73373000D01*
X83567000Y-73627000D01*
X83547000Y-73627000D01*
X83547000Y-74992250D01*
X83705750Y-75151000D01*
X84409910Y-75151000D01*
X84643299Y-75054327D01*
X84821927Y-74875698D01*
X84885500Y-74722220D01*
X84900330Y-74744415D01*
X85386511Y-75069271D01*
X85960000Y-75183345D01*
X86533489Y-75069271D01*
X86909727Y-74817877D01*
X88928610Y-76836760D01*
X88928610Y-84662084D01*
X88857299Y-84590773D01*
X88623910Y-84494100D01*
X87833350Y-84494100D01*
X87674600Y-84652850D01*
X87674600Y-86002100D01*
X87694600Y-86002100D01*
X87694600Y-86256100D01*
X87674600Y-86256100D01*
X87674600Y-87605350D01*
X87833350Y-87764100D01*
X88623910Y-87764100D01*
X88857299Y-87667427D01*
X88928610Y-87596116D01*
X88928610Y-100648610D01*
X88986462Y-100939449D01*
X89151209Y-101186011D01*
X92642599Y-104677401D01*
X92889161Y-104842148D01*
X93180000Y-104900000D01*
X124845198Y-104900000D01*
X125349279Y-105404081D01*
X125595841Y-105568828D01*
X125886680Y-105626680D01*
X126758146Y-105626680D01*
X126723480Y-105710370D01*
X126723480Y-105850930D01*
X126882230Y-106009680D01*
X128231480Y-106009680D01*
X128231480Y-105989680D01*
X128485480Y-105989680D01*
X128485480Y-106009680D01*
X129834730Y-106009680D01*
X129993480Y-105850930D01*
X129993480Y-105710370D01*
X129903674Y-105493558D01*
X129954911Y-105418570D01*
X130005920Y-105166680D01*
X130005920Y-104566680D01*
X129961642Y-104331363D01*
X129897802Y-104232152D01*
X129954911Y-104148570D01*
X130005920Y-103896680D01*
X130005920Y-103296680D01*
X129961642Y-103061363D01*
X129897802Y-102962152D01*
X129910527Y-102943529D01*
X132371079Y-105404081D01*
X132586962Y-105548329D01*
X132562049Y-105584790D01*
X132511040Y-105836680D01*
X132511040Y-106436680D01*
X132555318Y-106671997D01*
X132694390Y-106888121D01*
X132906590Y-107033111D01*
X133158480Y-107084120D01*
X134773480Y-107084120D01*
X134773480Y-107174941D01*
X133293420Y-108655000D01*
X122006579Y-108655000D01*
X120334928Y-106983348D01*
X120335231Y-106635617D01*
X120247145Y-106422430D01*
X126723480Y-106422430D01*
X126723480Y-106562990D01*
X126820153Y-106796379D01*
X126998782Y-106975007D01*
X127232171Y-107071680D01*
X128072730Y-107071680D01*
X128231480Y-106912930D01*
X128231480Y-106263680D01*
X128485480Y-106263680D01*
X128485480Y-106912930D01*
X128644230Y-107071680D01*
X129484789Y-107071680D01*
X129718178Y-106975007D01*
X129896807Y-106796379D01*
X129993480Y-106562990D01*
X129993480Y-106422430D01*
X129834730Y-106263680D01*
X128485480Y-106263680D01*
X128231480Y-106263680D01*
X126882230Y-106263680D01*
X126723480Y-106422430D01*
X120247145Y-106422430D01*
X120132418Y-106144771D01*
X119757204Y-105768902D01*
X119266713Y-105565232D01*
X118735617Y-105564769D01*
X118244771Y-105767582D01*
X117868902Y-106142796D01*
X117665232Y-106633287D01*
X117664927Y-106983494D01*
X116003420Y-108645000D01*
X108946579Y-108645000D01*
X107465963Y-107164383D01*
X111164769Y-107164383D01*
X111367582Y-107655229D01*
X111742796Y-108031098D01*
X112233287Y-108234768D01*
X112764383Y-108235231D01*
X113255229Y-108032418D01*
X113631098Y-107657204D01*
X113834768Y-107166713D01*
X113835231Y-106635617D01*
X113632418Y-106144771D01*
X113257204Y-105768902D01*
X112766713Y-105565232D01*
X112235617Y-105564769D01*
X111744771Y-105767582D01*
X111368902Y-106142796D01*
X111165232Y-106633287D01*
X111164769Y-107164383D01*
X107465963Y-107164383D01*
X107284928Y-106983348D01*
X107285231Y-106635617D01*
X107082418Y-106144771D01*
X106707204Y-105768902D01*
X106216713Y-105565232D01*
X105685617Y-105564769D01*
X105194771Y-105767582D01*
X104818902Y-106142796D01*
X104615232Y-106633287D01*
X104614927Y-106983494D01*
X102823420Y-108775000D01*
X100652847Y-108775000D01*
X100636462Y-108735345D01*
X100177073Y-108275154D01*
X99576547Y-108025794D01*
X98926306Y-108025226D01*
X98325345Y-108273538D01*
X97865154Y-108732927D01*
X97847684Y-108775000D01*
X96652847Y-108775000D01*
X96636462Y-108735345D01*
X96177073Y-108275154D01*
X95576547Y-108025794D01*
X94926306Y-108025226D01*
X94325345Y-108273538D01*
X93865154Y-108732927D01*
X93847684Y-108775000D01*
X84826579Y-108775000D01*
X78885000Y-102833420D01*
X78885000Y-99752302D01*
X83550856Y-99752302D01*
X83578638Y-100307368D01*
X83737603Y-100691143D01*
X83979787Y-100760608D01*
X84780395Y-99960000D01*
X83979787Y-99159392D01*
X83737603Y-99228857D01*
X83550856Y-99752302D01*
X78885000Y-99752302D01*
X78885000Y-96658000D01*
X83550560Y-96658000D01*
X83550560Y-98182000D01*
X83594838Y-98417317D01*
X83733910Y-98633441D01*
X83946110Y-98778431D01*
X84198000Y-98829440D01*
X84202516Y-98829440D01*
X84159392Y-98979787D01*
X84960000Y-99780395D01*
X85760608Y-98979787D01*
X85717484Y-98829440D01*
X85722000Y-98829440D01*
X85957317Y-98785162D01*
X86173441Y-98646090D01*
X86318431Y-98433890D01*
X86355492Y-98250876D01*
X86707630Y-98603629D01*
X86915512Y-98689949D01*
X86709697Y-98774990D01*
X86316371Y-99167630D01*
X86236605Y-99359727D01*
X86182397Y-99228857D01*
X85940213Y-99159392D01*
X85139605Y-99960000D01*
X85940213Y-100760608D01*
X86182397Y-100691143D01*
X86232509Y-100550682D01*
X86314990Y-100750303D01*
X86707630Y-101143629D01*
X86915512Y-101229949D01*
X86709697Y-101314990D01*
X86316371Y-101707630D01*
X86230051Y-101915512D01*
X86145010Y-101709697D01*
X85752370Y-101316371D01*
X85560273Y-101236605D01*
X85691143Y-101182397D01*
X85760608Y-100940213D01*
X84960000Y-100139605D01*
X84159392Y-100940213D01*
X84228857Y-101182397D01*
X84369318Y-101232509D01*
X84169697Y-101314990D01*
X83776371Y-101707630D01*
X83563243Y-102220900D01*
X83562758Y-102776661D01*
X83774990Y-103290303D01*
X84167630Y-103683629D01*
X84680900Y-103896757D01*
X85236661Y-103897242D01*
X85750303Y-103685010D01*
X86143629Y-103292370D01*
X86229949Y-103084488D01*
X86314990Y-103290303D01*
X86707630Y-103683629D01*
X87220900Y-103896757D01*
X87776661Y-103897242D01*
X88290303Y-103685010D01*
X88683629Y-103292370D01*
X88896757Y-102779100D01*
X88897242Y-102223339D01*
X88685010Y-101709697D01*
X88292370Y-101316371D01*
X88084488Y-101230051D01*
X88290303Y-101145010D01*
X88683629Y-100752370D01*
X88896757Y-100239100D01*
X88897242Y-99683339D01*
X88685010Y-99169697D01*
X88292370Y-98776371D01*
X88084488Y-98690051D01*
X88290303Y-98605010D01*
X88683629Y-98212370D01*
X88896757Y-97699100D01*
X88897242Y-97143339D01*
X88685010Y-96629697D01*
X88292370Y-96236371D01*
X87779100Y-96023243D01*
X87223339Y-96022758D01*
X86709697Y-96234990D01*
X86356237Y-96587833D01*
X86325162Y-96422683D01*
X86186090Y-96206559D01*
X85973890Y-96061569D01*
X85722000Y-96010560D01*
X84198000Y-96010560D01*
X83962683Y-96054838D01*
X83746559Y-96193910D01*
X83601569Y-96406110D01*
X83550560Y-96658000D01*
X78885000Y-96658000D01*
X78885000Y-91586138D01*
X79074538Y-92044855D01*
X79533927Y-92505046D01*
X80134453Y-92754406D01*
X80784694Y-92754974D01*
X81385655Y-92506662D01*
X81845846Y-92047273D01*
X82095206Y-91446747D01*
X82095774Y-90796506D01*
X81847462Y-90195545D01*
X81388073Y-89735354D01*
X80787547Y-89485994D01*
X80137306Y-89485426D01*
X79536345Y-89733738D01*
X79076154Y-90193127D01*
X78885000Y-90653477D01*
X78885000Y-86442993D01*
X83422325Y-86442993D01*
X83663119Y-87025757D01*
X84108597Y-87472014D01*
X84690941Y-87713824D01*
X85321493Y-87714375D01*
X85904257Y-87473581D01*
X86009467Y-87368555D01*
X86059273Y-87488798D01*
X86237901Y-87667427D01*
X86471290Y-87764100D01*
X87261850Y-87764100D01*
X87420600Y-87605350D01*
X87420600Y-86256100D01*
X87400600Y-86256100D01*
X87400600Y-86002100D01*
X87420600Y-86002100D01*
X87420600Y-84652850D01*
X87261850Y-84494100D01*
X86471290Y-84494100D01*
X86237901Y-84590773D01*
X86059273Y-84769402D01*
X86009588Y-84889351D01*
X85906603Y-84786186D01*
X85324259Y-84544376D01*
X84693707Y-84543825D01*
X84110943Y-84784619D01*
X83664686Y-85230097D01*
X83422876Y-85812441D01*
X83422325Y-86442993D01*
X78885000Y-86442993D01*
X78885000Y-81426138D01*
X79074538Y-81884855D01*
X79533927Y-82345046D01*
X80134453Y-82594406D01*
X80784694Y-82594974D01*
X81385655Y-82346662D01*
X81845846Y-81887273D01*
X82095206Y-81286747D01*
X82095774Y-80636506D01*
X81847462Y-80035545D01*
X81388073Y-79575354D01*
X80787547Y-79325994D01*
X80137306Y-79325426D01*
X79536345Y-79573738D01*
X79076154Y-80033127D01*
X78885000Y-80493477D01*
X78885000Y-75370180D01*
X80469429Y-73785750D01*
X81921400Y-73785750D01*
X81921400Y-74642309D01*
X82018073Y-74875698D01*
X82196701Y-75054327D01*
X82430090Y-75151000D01*
X83134250Y-75151000D01*
X83293000Y-74992250D01*
X83293000Y-73627000D01*
X82080150Y-73627000D01*
X81921400Y-73785750D01*
X80469429Y-73785750D01*
X81938308Y-72316871D01*
X81921400Y-72357691D01*
X81921400Y-73214250D01*
X82080150Y-73373000D01*
X83293000Y-73373000D01*
X83293000Y-72007750D01*
X83134250Y-71849000D01*
X82430090Y-71849000D01*
X82389272Y-71865907D01*
X83995787Y-70259392D01*
X83995790Y-70259390D01*
X84187633Y-69972275D01*
X84207182Y-69873998D01*
X84225673Y-69781040D01*
X84233600Y-69781040D01*
X84468917Y-69736762D01*
X84685041Y-69597690D01*
X84830031Y-69385490D01*
X84838864Y-69341869D01*
X84850330Y-69359029D01*
X84850330Y-69359029D01*
G37*
X84850330Y-69359029D02*
X85336511Y-69683885D01*
X85910000Y-69797959D01*
X86287973Y-69722775D01*
X86388610Y-69823412D01*
X86388610Y-71901911D01*
X85960000Y-71816655D01*
X85386511Y-71930729D01*
X84900330Y-72255585D01*
X84885500Y-72277780D01*
X84821927Y-72124302D01*
X84643299Y-71945673D01*
X84409910Y-71849000D01*
X83705750Y-71849000D01*
X83547000Y-72007750D01*
X83547000Y-73373000D01*
X83567000Y-73373000D01*
X83567000Y-73627000D01*
X83547000Y-73627000D01*
X83547000Y-74992250D01*
X83705750Y-75151000D01*
X84409910Y-75151000D01*
X84643299Y-75054327D01*
X84821927Y-74875698D01*
X84885500Y-74722220D01*
X84900330Y-74744415D01*
X85386511Y-75069271D01*
X85960000Y-75183345D01*
X86533489Y-75069271D01*
X86909727Y-74817877D01*
X88928610Y-76836760D01*
X88928610Y-84662084D01*
X88857299Y-84590773D01*
X88623910Y-84494100D01*
X87833350Y-84494100D01*
X87674600Y-84652850D01*
X87674600Y-86002100D01*
X87694600Y-86002100D01*
X87694600Y-86256100D01*
X87674600Y-86256100D01*
X87674600Y-87605350D01*
X87833350Y-87764100D01*
X88623910Y-87764100D01*
X88857299Y-87667427D01*
X88928610Y-87596116D01*
X88928610Y-100648610D01*
X88986462Y-100939449D01*
X89151209Y-101186011D01*
X92642599Y-104677401D01*
X92889161Y-104842148D01*
X93180000Y-104900000D01*
X124845198Y-104900000D01*
X125349279Y-105404081D01*
X125595841Y-105568828D01*
X125886680Y-105626680D01*
X126758146Y-105626680D01*
X126723480Y-105710370D01*
X126723480Y-105850930D01*
X126882230Y-106009680D01*
X128231480Y-106009680D01*
X128231480Y-105989680D01*
X128485480Y-105989680D01*
X128485480Y-106009680D01*
X129834730Y-106009680D01*
X129993480Y-105850930D01*
X129993480Y-105710370D01*
X129903674Y-105493558D01*
X129954911Y-105418570D01*
X130005920Y-105166680D01*
X130005920Y-104566680D01*
X129961642Y-104331363D01*
X129897802Y-104232152D01*
X129954911Y-104148570D01*
X130005920Y-103896680D01*
X130005920Y-103296680D01*
X129961642Y-103061363D01*
X129897802Y-102962152D01*
X129910527Y-102943529D01*
X132371079Y-105404081D01*
X132586962Y-105548329D01*
X132562049Y-105584790D01*
X132511040Y-105836680D01*
X132511040Y-106436680D01*
X132555318Y-106671997D01*
X132694390Y-106888121D01*
X132906590Y-107033111D01*
X133158480Y-107084120D01*
X134773480Y-107084120D01*
X134773480Y-107174941D01*
X133293420Y-108655000D01*
X122006579Y-108655000D01*
X120334928Y-106983348D01*
X120335231Y-106635617D01*
X120247145Y-106422430D01*
X126723480Y-106422430D01*
X126723480Y-106562990D01*
X126820153Y-106796379D01*
X126998782Y-106975007D01*
X127232171Y-107071680D01*
X128072730Y-107071680D01*
X128231480Y-106912930D01*
X128231480Y-106263680D01*
X128485480Y-106263680D01*
X128485480Y-106912930D01*
X128644230Y-107071680D01*
X129484789Y-107071680D01*
X129718178Y-106975007D01*
X129896807Y-106796379D01*
X129993480Y-106562990D01*
X129993480Y-106422430D01*
X129834730Y-106263680D01*
X128485480Y-106263680D01*
X128231480Y-106263680D01*
X126882230Y-106263680D01*
X126723480Y-106422430D01*
X120247145Y-106422430D01*
X120132418Y-106144771D01*
X119757204Y-105768902D01*
X119266713Y-105565232D01*
X118735617Y-105564769D01*
X118244771Y-105767582D01*
X117868902Y-106142796D01*
X117665232Y-106633287D01*
X117664927Y-106983494D01*
X116003420Y-108645000D01*
X108946579Y-108645000D01*
X107465963Y-107164383D01*
X111164769Y-107164383D01*
X111367582Y-107655229D01*
X111742796Y-108031098D01*
X112233287Y-108234768D01*
X112764383Y-108235231D01*
X113255229Y-108032418D01*
X113631098Y-107657204D01*
X113834768Y-107166713D01*
X113835231Y-106635617D01*
X113632418Y-106144771D01*
X113257204Y-105768902D01*
X112766713Y-105565232D01*
X112235617Y-105564769D01*
X111744771Y-105767582D01*
X111368902Y-106142796D01*
X111165232Y-106633287D01*
X111164769Y-107164383D01*
X107465963Y-107164383D01*
X107284928Y-106983348D01*
X107285231Y-106635617D01*
X107082418Y-106144771D01*
X106707204Y-105768902D01*
X106216713Y-105565232D01*
X105685617Y-105564769D01*
X105194771Y-105767582D01*
X104818902Y-106142796D01*
X104615232Y-106633287D01*
X104614927Y-106983494D01*
X102823420Y-108775000D01*
X100652847Y-108775000D01*
X100636462Y-108735345D01*
X100177073Y-108275154D01*
X99576547Y-108025794D01*
X98926306Y-108025226D01*
X98325345Y-108273538D01*
X97865154Y-108732927D01*
X97847684Y-108775000D01*
X96652847Y-108775000D01*
X96636462Y-108735345D01*
X96177073Y-108275154D01*
X95576547Y-108025794D01*
X94926306Y-108025226D01*
X94325345Y-108273538D01*
X93865154Y-108732927D01*
X93847684Y-108775000D01*
X84826579Y-108775000D01*
X78885000Y-102833420D01*
X78885000Y-99752302D01*
X83550856Y-99752302D01*
X83578638Y-100307368D01*
X83737603Y-100691143D01*
X83979787Y-100760608D01*
X84780395Y-99960000D01*
X83979787Y-99159392D01*
X83737603Y-99228857D01*
X83550856Y-99752302D01*
X78885000Y-99752302D01*
X78885000Y-96658000D01*
X83550560Y-96658000D01*
X83550560Y-98182000D01*
X83594838Y-98417317D01*
X83733910Y-98633441D01*
X83946110Y-98778431D01*
X84198000Y-98829440D01*
X84202516Y-98829440D01*
X84159392Y-98979787D01*
X84960000Y-99780395D01*
X85760608Y-98979787D01*
X85717484Y-98829440D01*
X85722000Y-98829440D01*
X85957317Y-98785162D01*
X86173441Y-98646090D01*
X86318431Y-98433890D01*
X86355492Y-98250876D01*
X86707630Y-98603629D01*
X86915512Y-98689949D01*
X86709697Y-98774990D01*
X86316371Y-99167630D01*
X86236605Y-99359727D01*
X86182397Y-99228857D01*
X85940213Y-99159392D01*
X85139605Y-99960000D01*
X85940213Y-100760608D01*
X86182397Y-100691143D01*
X86232509Y-100550682D01*
X86314990Y-100750303D01*
X86707630Y-101143629D01*
X86915512Y-101229949D01*
X86709697Y-101314990D01*
X86316371Y-101707630D01*
X86230051Y-101915512D01*
X86145010Y-101709697D01*
X85752370Y-101316371D01*
X85560273Y-101236605D01*
X85691143Y-101182397D01*
X85760608Y-100940213D01*
X84960000Y-100139605D01*
X84159392Y-100940213D01*
X84228857Y-101182397D01*
X84369318Y-101232509D01*
X84169697Y-101314990D01*
X83776371Y-101707630D01*
X83563243Y-102220900D01*
X83562758Y-102776661D01*
X83774990Y-103290303D01*
X84167630Y-103683629D01*
X84680900Y-103896757D01*
X85236661Y-103897242D01*
X85750303Y-103685010D01*
X86143629Y-103292370D01*
X86229949Y-103084488D01*
X86314990Y-103290303D01*
X86707630Y-103683629D01*
X87220900Y-103896757D01*
X87776661Y-103897242D01*
X88290303Y-103685010D01*
X88683629Y-103292370D01*
X88896757Y-102779100D01*
X88897242Y-102223339D01*
X88685010Y-101709697D01*
X88292370Y-101316371D01*
X88084488Y-101230051D01*
X88290303Y-101145010D01*
X88683629Y-100752370D01*
X88896757Y-100239100D01*
X88897242Y-99683339D01*
X88685010Y-99169697D01*
X88292370Y-98776371D01*
X88084488Y-98690051D01*
X88290303Y-98605010D01*
X88683629Y-98212370D01*
X88896757Y-97699100D01*
X88897242Y-97143339D01*
X88685010Y-96629697D01*
X88292370Y-96236371D01*
X87779100Y-96023243D01*
X87223339Y-96022758D01*
X86709697Y-96234990D01*
X86356237Y-96587833D01*
X86325162Y-96422683D01*
X86186090Y-96206559D01*
X85973890Y-96061569D01*
X85722000Y-96010560D01*
X84198000Y-96010560D01*
X83962683Y-96054838D01*
X83746559Y-96193910D01*
X83601569Y-96406110D01*
X83550560Y-96658000D01*
X78885000Y-96658000D01*
X78885000Y-91586138D01*
X79074538Y-92044855D01*
X79533927Y-92505046D01*
X80134453Y-92754406D01*
X80784694Y-92754974D01*
X81385655Y-92506662D01*
X81845846Y-92047273D01*
X82095206Y-91446747D01*
X82095774Y-90796506D01*
X81847462Y-90195545D01*
X81388073Y-89735354D01*
X80787547Y-89485994D01*
X80137306Y-89485426D01*
X79536345Y-89733738D01*
X79076154Y-90193127D01*
X78885000Y-90653477D01*
X78885000Y-86442993D01*
X83422325Y-86442993D01*
X83663119Y-87025757D01*
X84108597Y-87472014D01*
X84690941Y-87713824D01*
X85321493Y-87714375D01*
X85904257Y-87473581D01*
X86009467Y-87368555D01*
X86059273Y-87488798D01*
X86237901Y-87667427D01*
X86471290Y-87764100D01*
X87261850Y-87764100D01*
X87420600Y-87605350D01*
X87420600Y-86256100D01*
X87400600Y-86256100D01*
X87400600Y-86002100D01*
X87420600Y-86002100D01*
X87420600Y-84652850D01*
X87261850Y-84494100D01*
X86471290Y-84494100D01*
X86237901Y-84590773D01*
X86059273Y-84769402D01*
X86009588Y-84889351D01*
X85906603Y-84786186D01*
X85324259Y-84544376D01*
X84693707Y-84543825D01*
X84110943Y-84784619D01*
X83664686Y-85230097D01*
X83422876Y-85812441D01*
X83422325Y-86442993D01*
X78885000Y-86442993D01*
X78885000Y-81426138D01*
X79074538Y-81884855D01*
X79533927Y-82345046D01*
X80134453Y-82594406D01*
X80784694Y-82594974D01*
X81385655Y-82346662D01*
X81845846Y-81887273D01*
X82095206Y-81286747D01*
X82095774Y-80636506D01*
X81847462Y-80035545D01*
X81388073Y-79575354D01*
X80787547Y-79325994D01*
X80137306Y-79325426D01*
X79536345Y-79573738D01*
X79076154Y-80033127D01*
X78885000Y-80493477D01*
X78885000Y-75370180D01*
X80469429Y-73785750D01*
X81921400Y-73785750D01*
X81921400Y-74642309D01*
X82018073Y-74875698D01*
X82196701Y-75054327D01*
X82430090Y-75151000D01*
X83134250Y-75151000D01*
X83293000Y-74992250D01*
X83293000Y-73627000D01*
X82080150Y-73627000D01*
X81921400Y-73785750D01*
X80469429Y-73785750D01*
X81938308Y-72316871D01*
X81921400Y-72357691D01*
X81921400Y-73214250D01*
X82080150Y-73373000D01*
X83293000Y-73373000D01*
X83293000Y-72007750D01*
X83134250Y-71849000D01*
X82430090Y-71849000D01*
X82389272Y-71865907D01*
X83995787Y-70259392D01*
X83995790Y-70259390D01*
X84187633Y-69972275D01*
X84207182Y-69873998D01*
X84225673Y-69781040D01*
X84233600Y-69781040D01*
X84468917Y-69736762D01*
X84685041Y-69597690D01*
X84830031Y-69385490D01*
X84838864Y-69341869D01*
X84850330Y-69359029D01*
M02*
