M48
;DRILL file {KiCad 4.0.5} date 
;FORMAT={-:-/ absolute / metric / decimal}
FMAT,2
METRIC,TZ
T1C0.700
T2C0.800
T3C0.813
T4C0.900
T5C1.001
T6C1.016
%
G90
G05
M71
T1
X101.5Y-95.
X103.Y-95.
X104.5Y-95.
X106.Y-95.
X107.5Y-95.
X109.Y-95.
X110.5Y-95.
X112.Y-95.
X113.5Y-95.
T2
X127.38Y-85.13
X127.38Y-87.67
X127.38Y-90.21
X127.38Y-92.75
X135.Y-85.13
X135.Y-87.67
X135.Y-90.21
X135.Y-92.75
T3
X84.96Y-97.42
X84.96Y-99.96
X84.96Y-102.5
X87.5Y-97.42
X87.5Y-99.96
X87.5Y-102.5
T4
X105.95Y-101.9
X105.95Y-106.9
X112.5Y-101.9
X112.5Y-106.9
X119.Y-101.9
X119.Y-106.9
T5
X80.461Y-80.96
X80.461Y-91.12
X85.008Y-86.129
X87.548Y-86.129
X95.25Y-99.5
X95.25Y-109.66
X99.25Y-99.5
X99.25Y-109.66
T6
X83.37Y-65.73
X83.37Y-68.27
X83.42Y-73.5
X84.96Y-112.5
X84.96Y-115.04
X85.91Y-65.73
X85.91Y-68.27
X85.96Y-73.5
X87.5Y-112.5
X87.5Y-115.04
X88.45Y-65.73
X88.45Y-68.27
X88.5Y-73.5
X90.04Y-112.5
X90.04Y-115.04
X90.99Y-65.73
X90.99Y-68.27
X93.53Y-65.73
X93.53Y-68.27
X96.07Y-65.73
X96.07Y-68.27
X98.61Y-65.73
X98.61Y-68.27
X101.15Y-65.73
X101.15Y-68.27
X103.69Y-65.73
X103.69Y-68.27
X106.23Y-65.73
X106.23Y-68.27
X108.77Y-65.73
X108.77Y-68.27
X111.31Y-65.73
X111.31Y-68.27
X113.85Y-65.73
X113.85Y-68.27
X116.39Y-65.73
X116.39Y-68.27
X118.93Y-65.73
X118.93Y-68.27
X121.47Y-65.73
X121.47Y-68.27
X124.01Y-65.73
X124.01Y-68.27
X124.92Y-112.5
X124.92Y-115.04
X126.55Y-65.73
X126.55Y-68.27
X127.46Y-112.5
X127.46Y-115.04
X129.09Y-65.73
X129.09Y-68.27
X130.Y-112.5
X130.Y-115.04
X131.63Y-65.73
X131.63Y-68.27
T0
M30
