G04 #@! TF.FileFunction,Soldermask,Bot*
%FSLAX46Y46*%
G04 Gerber Fmt 4.6, Leading zero omitted, Abs format (unit mm)*
G04 Created by KiCad (PCBNEW 4.0.5) date *
%MOMM*%
%LPD*%
G01*
G04 APERTURE LIST*
%ADD10C,0.150000*%
%ADD11C,3.100000*%
%ADD12R,2.127200X2.127200*%
%ADD13O,2.127200X2.127200*%
%ADD14R,2.127200X2.432000*%
%ADD15O,2.127200X2.432000*%
%ADD16O,2.000000X2.000000*%
%ADD17R,2.300000X2.400000*%
%ADD18C,2.300000*%
%ADD19C,1.800000*%
%ADD20C,2.398980*%
%ADD21R,1.924000X1.924000*%
%ADD22C,1.924000*%
%ADD23R,1.300000X2.400000*%
%ADD24O,1.300000X2.400000*%
G04 APERTURE END LIST*
D10*
D11*
X136500000Y-116500000D03*
X136500000Y-67000000D03*
X78500000Y-116500000D03*
D12*
X83370000Y-68270000D03*
D13*
X83370000Y-65730000D03*
X85910000Y-68270000D03*
X85910000Y-65730000D03*
X88450000Y-68270000D03*
X88450000Y-65730000D03*
X90990000Y-68270000D03*
X90990000Y-65730000D03*
X93530000Y-68270000D03*
X93530000Y-65730000D03*
X96070000Y-68270000D03*
X96070000Y-65730000D03*
X98610000Y-68270000D03*
X98610000Y-65730000D03*
X101150000Y-68270000D03*
X101150000Y-65730000D03*
X103690000Y-68270000D03*
X103690000Y-65730000D03*
X106230000Y-68270000D03*
X106230000Y-65730000D03*
X108770000Y-68270000D03*
X108770000Y-65730000D03*
X111310000Y-68270000D03*
X111310000Y-65730000D03*
X113850000Y-68270000D03*
X113850000Y-65730000D03*
X116390000Y-68270000D03*
X116390000Y-65730000D03*
X118930000Y-68270000D03*
X118930000Y-65730000D03*
X121470000Y-68270000D03*
X121470000Y-65730000D03*
X124010000Y-68270000D03*
X124010000Y-65730000D03*
X126550000Y-68270000D03*
X126550000Y-65730000D03*
X129090000Y-68270000D03*
X129090000Y-65730000D03*
X131630000Y-68270000D03*
X131630000Y-65730000D03*
D11*
X78500000Y-67000000D03*
D14*
X83420000Y-73500000D03*
D15*
X85960000Y-73500000D03*
X88500000Y-73500000D03*
D16*
X127380000Y-85130000D03*
X127380000Y-87670000D03*
X127380000Y-90210000D03*
X127380000Y-92750000D03*
X135000000Y-92750000D03*
X135000000Y-90210000D03*
X135000000Y-87670000D03*
X135000000Y-85130000D03*
D17*
X87547600Y-86129100D03*
D18*
X85007600Y-86129100D03*
D19*
X105950000Y-106900000D03*
X105950000Y-101900000D03*
X112500000Y-106900000D03*
X112500000Y-101900000D03*
X119000000Y-106900000D03*
X119000000Y-101900000D03*
D20*
X95250000Y-109660000D03*
X95250000Y-99500000D03*
X99250000Y-109660000D03*
X99250000Y-99500000D03*
X80461000Y-80960200D03*
X80461000Y-91120200D03*
D12*
X84960000Y-115040000D03*
D13*
X84960000Y-112500000D03*
X87500000Y-115040000D03*
X87500000Y-112500000D03*
X90040000Y-115040000D03*
X90040000Y-112500000D03*
D12*
X124920000Y-115040000D03*
D13*
X124920000Y-112500000D03*
X127460000Y-115040000D03*
X127460000Y-112500000D03*
X130000000Y-115040000D03*
X130000000Y-112500000D03*
D21*
X84960000Y-97420000D03*
D22*
X84960000Y-99960000D03*
X84960000Y-102500000D03*
X87500000Y-102500000D03*
X87500000Y-99960000D03*
X87500000Y-97420000D03*
D23*
X101500000Y-94800000D03*
D24*
X103000000Y-94800000D03*
X104500000Y-94800000D03*
X106000000Y-94800000D03*
X109000000Y-94800000D03*
X110500000Y-94800000D03*
X107500000Y-94800000D03*
X112000000Y-94800000D03*
X113500000Y-94800000D03*
M02*
